<?xml version="1.0" encoding="UTF-8"?>
<svg id="Layer_1" data-name="Layer 1" xmlns="http://www.w3.org/2000/svg" viewBox="0 0 1793.93 1892.69">
  <defs>
    <style>
      .cls-1, .cls-2 {
        fill: #ff99d6;
      }

      .cls-3 {
        fill: none;
      }

      .cls-4 {
        fill: #ff00a4;
      }

      .cls-2 {
        font-family: ElenaDemoFontRegular, 'Elena Demo Font';
        font-size: 274.15px;
      }
    </style>
  </defs>
  <g>
    <path class="cls-3" d="M490.85,810.41c-.66,.9-.86,2.05-.55,3.13l5.16,17.48c.18,.57,.47,.64,.9,.21l25.77-25.48c.45-.45,.35-.68-.27-.74-8.19-.76-25.49-2.05-31,5.39Z"/>
    <path class="cls-3" d="M881.42,285.48c.23,.12,.53,.04,.66-.18,.14-.23,.1-.53-.12-.68-21.27-16.41-29.19-34.42-22.53-61.6,.06-.25-.08-.51-.33-.59-.25-.08-.51,.06-.61,.29-10.96,28.46-3.32,49.39,22.92,62.75Z"/>
    <path class="cls-3" d="M843.71,514.11c-15.41,33.33-49.07,87.01-39.76,124.56,4.71,18.91,24.03,37.94,39.01,50.17,1.86,1.52,5.31,3.75,7.13,4.1,10.8,2.17,21.55,4.61,32.22,7.35,1.58,.41,3.54,.61,5.9,.59,.66,0,1.19-.25,1.58-.78,27.35-35.79,49.72-77.05,68.77-117.69,.25-.53,.2-1.04-.14-1.52l-86.78-123.61c-.37-.55-.76-.55-1.15,0-8.93,12.68-17.74,25.2-26.43,37.61-1.86,2.66-3.46,5.57-4.79,8.75,3.18,2.29,4.65,5.76,4.43,10.47Z"/>
    <path class="cls-3" d="M703.15,660.37c-1.39-20.26-14.38-49.27-21.74-71.5-.16-.49-.86-.51-1.04-.02-6.02,15.65-12.09,32.45-19.99,46.16-6.58,11.45-14.32,22.6-23.21,33.49-32.33,39.56-61.05,69.22-84.81,110.11-.84,1.47-.63,1.64,.66,.55,32.25-27.49,70.39-53.26,113.43-62.4l6.08-1.02c22.02-13.64,32.22-32.1,30.61-55.37Z"/>
    <path class="cls-3" d="M912.93,289.29c-.7,1.78-.47,1.91,.7,.41,9.85-12.64,6.95-27.43-5.18-36.59-3.73-2.83-9.55-6.47-17.45-10.92-17.82-10.06-20.65-29.71-19.24-49.52,.04-.41-.14-.55-.51-.41-.18,.06-.35,.12-.51,.18-.29,.12-.45,.33-.47,.66-.25,11.1-1.64,25.34,2.38,34.83,10.71,25.16,54.78,24.52,40.26,61.36Z"/>
    <path class="cls-1" d="M1620.8,1270.27c5.57,6.27,11.88,12.41,16.12,19.54,39.25,65.84,54.29,142.81,57.79,218.24,.27,5.8,.08,5.82-.61,.06-1.8-15.47-3.46-32.57-5.82-46.24-13.09-75.55-39.81-142.65-91.39-200.21-.45-.49-.55-1.05-.33-1.68l.31-.94c-24.87-12.01-50.38-22.56-76.5-31.65-29.77-10.35-62.5-20.53-89.42-32.68-40.21-18.13-76.87-44.09-110.01-77.89-24.03-24.52-41.44-43.41-52.24-56.67-102.68-126.11-213.08-252.27-357.84-331.55-.7-.39-.76-.86-.2-1.43,27.72-27.16,120.36-108.54,112.02-148.08-1-4.77-2.5-8.83-4.47-12.21-22.8-38.78-50.15-78.73-82.03-119.89-1.93-2.5-4.92-7.09-5.86-9.98-7.93-24.54-14.98-45.21-28.62-66.31-6.45-9.96-12.44-16.64-18.01-20.06-24.11-14.73-43.41-27.14-55.13-54.19-6.9-15.88-9.48-30.98-7.76-45.34,.02-.25,.16-.41,.37-.49,.2-.06,.39-.14,.61-.2,.37-.12,.55,.02,.53,.41-.37,13.83,4.47,29.66,15.3,38.7,6.62,5.55,16.22,7.29,24.15,9.92,16.7,5.59,9.46,19.97,15.79,32,8.36,15.9,26.59,15.67,42.96,16.37,.82,.04,1.07,.43,.76,1.19-4.73,11.17-9.16,20.81-1.21,31.75,13.58,18.7,43.45-1.88,24.85-18.11-1.15-1.02-1.39-.84-.7,.53,1.84,3.58,2.11,7.23,.84,10.94-.23,.64-.64,1.15-1.23,1.48-14.93,8.38-27.94-5.26-16.35-19.95,10.26-13.05,29.91-17.62,29.3-37.94-.45-15.14-10.61-25.67-26.78-22.66-.18,.04-.31,.2-.29,.39,.02,.2,.16,.33,.35,.33,27.82,.37,16.86,35.09-6.29,29.32-15.26-3.77-20.01-17.52-11.29-31,4.22-6.51,11.6-13.36,15.3-20.18,16.33-30.2-15.51-37.45-35.54-47.59-2.03-1.04-1.95-1.23,.25-.63,2.13,.61,4.08,1.29,5.9,2.05,25.08,10.67,49.43-20.55,23.05-36.86-1.47-.9-1.74-.63-.84,.84,.59,.96,1.27,1.88,2.07,2.72,.45,.49,.7,1.07,.76,1.76,1.74,22.6-22.43,28.41-36.24,13.25-9.75-10.69-14.52-22.76-14.34-36.22,0-.16,.08-.25,.23-.29,.16-.06,.31-.12,.47-.18,.31-.1,.47,.02,.45,.35-.37,20.94,8.64,36.79,30.95,39.07,2.25,.23,3.34-2.64,1.54-3.99-16.51-12.31-19.91-29.17-23.99-48.25-4.42-20.69-13.21-39.56-26.37-56.62-.35-.45,.18-1.05,.66-.78,10.3,5.63,22.99,11.47,34.91,6.64,11.31-4.61,17.88-13.93,13.13-26.28-1.66-4.3-4.69-7.33-9.1-9.1-.88-.35-1.04-.14-.51,.63,5,7.11,2.44,14.4-4.18,19.22-7.44,5.45-16.25,6.02-26.41,1.74-1.09-.47-1.19-1.95-.2-2.58,17.29-10.73,25.85-35.24,12.42-52.28-5.98-7.6-14.22-10.59-24.75-8.93-.68,.1-1.07-.18-1.19-.86-9.18-55.7-91.68-27.94-70.1,21.57,.23,.53,.06,.82-.51,.88-20.08,2.23-36.4,5.43-56.38-.1-7.46-2.05-12.72-3.15-15.77-3.26-21-.84-42.92,8.58-58.43,22.1-20.67,18.01-31.14,50.42-13.52,74.37,5.7,7.76,13.36,12.42,22.97,14.01,.49,.08,.82,.53,.78,1.04-1.19,10.8,.78,20.98,5.9,30.57,8.19,15.34,12.15,30.91-2.23,42.1-1.6,1.25-1.74,3.65-.27,5.06l9.4,9.03c.53,.49,.68,1.09,.47,1.78-2.03,6.86,.47,11.08,7.52,12.62,.72,.16,.96,.57,.74,1.25-2.48,7.7,4.26,8.52,8.99,11.33,.55,.31,.94,.76,1.17,1.35,11.98,28.44,42.63,5.51,58.65-5.55,.53-.37,.96-.27,1.29,.25,7.5,12.01,11.86,23.01,13.09,32.98,4,32.74-42.37,36.3-60.11,44.93-31.8,15.47-33.66,47.9-36.61,79.38-.64,6.76-3.52,10.65-9.77,12.54l15.47,11.64c.55,.41,1.09,.39,1.62-.04,19.77-16.2,40.34-25.57,65.41-13.56,17.02,8.15,33.23,17.66,48.66,28.5,16.82,11.82,33.47,23.87,49.95,36.12,1.33-3.18,2.93-6.1,4.79-8.75,8.69-12.41,17.5-24.93,26.43-37.61,.39-.55,.78-.55,1.15,0l86.78,123.61c.33,.49,.39,1,.14,1.52-19.05,40.64-41.42,81.9-68.77,117.69-.39,.53-.92,.78-1.58,.78-2.36,.02-4.32-.18-5.9-.59-10.67-2.73-21.41-5.18-32.22-7.35-1.82-.35-5.27-2.58-7.13-4.1-14.98-12.23-34.31-31.26-39.01-50.17-9.32-37.55,24.34-91.23,39.76-124.56-28.27-19.5-55.83-39.31-85.71-55.46-31.94-17.27-60.91-24.91-84.18,9.67-.57,.84-1.8,.84-2.36,.02-6.7-9.67-15.22-17.21-25.51-22.64-9.85,7.09-22.53,12.84-26.86,25.18-6.95,19.77,11.68,38.72,28.89,45.34,.64,.25,.86,.7,.63,1.35-7.83,21.51-15.39,43.14-22.68,64.84-.98,2.91-3.07,7.35-4.77,9.79-29.5,41.96-49.17,86.6-71.5,131.01-8.38,16.68-16.8,32.35-31.3,38.02-16.82,6.58-33.54,13.56-50.15,20.88-.61,.25-1.07,.68-1.37,1.27-8.17,15.88-4.3,41.98-.8,58.32,.57,2.64,3.91,3.5,5.67,1.45,3.87-4.53,5.86-9.9,5.98-16.1,.04-1.64,.47-1.76,1.27-.33l7.97,13.97c.31,.55,.25,1.07-.16,1.56-13.42,15.45-23.5,27.58-30.2,36.38-91.96,120.77-180.34,258.42-249.36,400.24-11.82,24.28-79.77,176.78-55.52,192.57,.74,.49,.92,.33,.51-.45-6.88-13.13,4.06-23.68,16.49-16.51,21.63,12.5,17.9,42.63,9.98,62.54-25.94,65.25-86.78,115.91-142.5,157.48-20.96,15.65-47.02,35.61-31.41,65.6,4.43,8.52,19.15,28.39,31.22,20.71,3.93-2.5,5.2-6.51,3.81-12.03-3.36-13.42-18.75-21.45-29.71-24.87-1.9-.59-2.09-3.2-.29-4.08,20.55-10,35.15,23.35,42.76,35.34,15.8,24.87,37.74,39.78,64.51,52.24,110.03,51.34,237.74,49.07,351.34,11.72,20.12-6.62,40.24-13.28,60.35-20.01,30.53-10.22,56.09-12.19,84.59,4.2,29.73,17.09,57.61,36.9,86.76,54.94,86.51,53.47,193.04,39.6,280.05-6.7,22.45-11.94,44.97-23.7,67.59-35.26,12.13-6.21,22.96-10.76,32.43-13.66,29.4-8.95,61.11-2.77,91.72,6.04,53.02,15.26,101.63,32.2,159.43,36.34,70.53,5.06,146.42-1.15,208.02-39.85,13.03-8.19,23.17-18.54,30.42-31.06,7.27-12.56,10.53-32.27,20.34-42.37,13.75-14.12,23.99-8.03,41.87-.82,117.51,47.45,150.76-90,159.92-170.55,15.14-133.06-54.62-234.92-171.08-290.05ZM870.28,193.09c.02-.33,.18-.55,.47-.66,.16-.06,.33-.12,.51-.18,.37-.14,.55,0,.51,.41-1.41,19.81,1.43,39.46,19.24,49.52,7.89,4.45,13.71,8.09,17.45,10.92,12.13,9.16,15.02,23.95,5.18,36.59-1.17,1.5-1.41,1.37-.7-.41,14.52-36.85-29.56-36.2-40.26-61.36-4.02-9.49-2.64-23.74-2.38-34.83Zm-11.78,29.64c.1-.23,.35-.37,.61-.29,.25,.08,.39,.33,.33,.59-6.66,27.17,1.25,45.19,22.53,61.6,.21,.16,.25,.45,.12,.68-.14,.21-.43,.29-.66,.18-26.24-13.36-33.88-34.29-22.92-62.75ZM350.49,1474.78c-6.27,78.16-40.62,172.48-108.39,218.43-8.07,5.47-18.34,10.53-30.83,15.18-.88,.33-.92,.27-.08-.18,68.92-36.85,103.44-134.47,119.19-205.56,10.73-48.37,16.96-98.56,18.72-150.58,0-.1,.08-.16,.18-.16s.18,.06,.18,.16c4,40.34,4.34,81.25,1.04,122.71Zm171.64-669.01l-25.77,25.48c-.43,.43-.72,.35-.9-.21l-5.16-17.48c-.31-1.07-.12-2.23,.55-3.13,5.51-7.44,22.82-6.15,31-5.39,.63,.06,.72,.29,.27,.74Zm313.73-69.49c-51.73,16.96-100.3,49.13-133.84,92.35-.57,.74-1.7,.7-2.25-.06-20.57-29.3-38.66-69.39-37.26-105.4,.1-2.38,1.41-4.51,3.95-6.41-43.04,9.14-81.17,34.91-113.43,62.4-1.29,1.09-1.5,.92-.66-.55,23.76-40.89,52.47-70.55,84.81-110.11,8.89-10.88,16.63-22.04,23.21-33.49,7.89-13.71,13.97-30.52,19.99-46.16,.18-.49,.88-.47,1.04,.02,7.37,22.23,20.36,51.24,21.74,71.5,1.6,23.27-8.6,41.73-30.61,55.37-4.1,35.99,9.1,70.19,29.17,99.4,.41,.59,.82,.61,1.27,.06,23.03-28.58,50.99-50.91,83.91-66.95,12.91-6.31,35.61-16.33,48.98-12.62,.7,.21,.7,.43,0,.64Zm311.68,883.72c-55.81-135.17-111.41-270.11-175.79-401.53-14.98-30.57-37.69-74.16-68.14-130.76-22.04-40.95-41.22-74.18-57.53-99.69-.7-.21-.98-.7-.82-1.45,.2-.92,.53-.98,1.02-.18,13.69,22.1,27.37,44.19,40.99,66.33,6.35,10.33,14.93,22.51,22.56,34.68,79.92,127.59,160.9,256.33,203.96,401.14,11.62,39.09,22.9,82.91,33.82,131.44,.06,.21,.04,.23-.06,.02Zm28.64-272.02c-.2,.04-.39-.06-.45-.25-44.23-133.84-103.56-261.9-179.93-380.47-6-9.32-19.46-26.47-40.34-51.5-3.15-3.79-3.01-3.93,.45-.41,6.94,7.05,14.18,15.73,21.78,26.04,13.54,18.36,33.33,41.42,46.71,59.96,75.66,104.85,128.57,217.71,152.05,346.2,.04,.2-.08,.37-.27,.43Zm41.16-193.51c-33.11-37.94-66.68-84.4-100.59-129.9-55.72-74.73-96.31-127.26-144.47-182.21-1.15-1.31-1.02-1.47,.41-.47,1.82,1.27,3.42,2.75,4.84,4.43,29.23,34.68,60.25,68.12,88.83,103.27,62.46,76.87,105.2,128.49,128.24,154.86,74.37,85.16,160.57,180.92,273.97,212.46,.23,.06,.37,.31,.31,.55-.06,.23-.29,.39-.53,.33-102.84-23.13-183.15-85.59-251.02-163.32Zm336.45,423.93c-10.37,.18-19.99-.9-30.89,2.21-20.79,5.92-35.73,20.77-36.92,43.21-.88,16.33,3.73,37.7,1.99,52.22-3.5,29.01-29.36,44.68-56.85,38.72-55.42-12-73.94-101.61-81.64-147.17-5.53-32.68-11-65.39-16.43-98.11-6.49-38.99-18.42-75.72-43.35-107.02-.86-1.07-.64-1.37,.63-.84,50.34,20.53,74.3,90.34,81.37,139.12,4.4,30.2,4.14,85.08,13.71,131.65,6.19,30.03,17.78,74.78,54.84,78.05,17.05,1.5,32.35-8.2,29.66-27.04-1.13-7.99-6.76-18.6-9.24-25.94-10.74-31.75,9.24-62.14,38.23-74.43,17.7-7.48,36.02-9.18,54.96-5.08,1.25,.29,1.23,.43-.06,.45Z"/>
    <path class="cls-4" d="M671.46,468.33c.57,.82,1.8,.82,2.36-.02,23.27-34.58,52.24-26.94,84.18-9.67,29.87,16.16,57.44,35.97,85.71,55.46,.21-4.71-1.25-8.19-4.43-10.47-16.49-12.25-33.13-24.3-49.95-36.12-15.43-10.84-31.65-20.36-48.66-28.5-25.06-12.01-45.64-2.64-65.41,13.56-.53,.43-1.07,.45-1.62,.04l-15.47-11.64c-5.29-1-9.38,.57-12.21,4.73,10.3,5.43,18.81,12.97,25.51,22.64Z"/>
    <path class="cls-4" d="M835.86,735.63c-13.36-3.71-36.06,6.31-48.98,12.62-32.92,16.04-60.87,38.37-83.91,66.95-.45,.55-.86,.53-1.27-.06-20.06-29.21-33.27-63.41-29.17-99.4l-6.08,1.02c-2.54,1.9-3.85,4.02-3.95,6.41-1.41,36.01,16.68,76.09,37.26,105.4,.55,.76,1.68,.8,2.25,.06,33.54-43.21,82.11-75.39,133.84-92.35,.7-.21,.7-.43,0-.64Z"/>
  </g>
  <text class="cls-2" transform="translate(1140.15 320.33)"><tspan x="0" y="0">Mis </tspan><tspan x="189.02" y="328.98">15</tspan><tspan x="-8.22" y="657.96">Años</tspan></text>
</svg>