<?xml version="1.0" encoding="UTF-8"?>
<svg id="Capa_1" data-name="Capa 1" xmlns="http://www.w3.org/2000/svg" viewBox="0 0 500.4 443.3">
  <defs>
    <style>
      .cls-1 {
        fill: #fccf01;
      }

      .cls-2 {
        fill: #070605;
      }
    </style>
  </defs>
  <path class="cls-2" d="M250.25,443.28c-70.13,0-140.27-.03-210.4,.03-15.21,.01-27.27-5.64-34.86-19.11-7.46-13.24-6.19-26.29,1.33-39.29C74.58,266.82,142.75,148.68,210.95,30.56c1.91-3.31,3.9-6.58,5.73-9.94C223.8,7.53,234.8,.21,249.66,0c15.32-.21,26.45,7.27,34.07,20.53,26.27,45.72,52.69,91.35,79.05,137.02,44.07,76.35,88.14,152.69,132.23,229.04,15.01,25.98-2.97,56.65-33.36,56.67-70.47,.05-140.93,.02-211.4,.02Zm-.15-18.7v.02c70.47,0,140.93,.02,211.4-.02,16.72,0,25.26-14.96,16.9-29.47-26.76-46.42-53.53-92.82-80.31-139.22-43.59-75.52-87.18-151.05-130.83-226.53-8.53-14.75-25.79-14.55-34.31,.23-8.8,15.28-17.57,30.58-26.39,45.85-61.49,106.5-122.87,213.05-184.6,319.41-8.95,15.42,3.02,30.07,17.24,29.96,70.3-.54,140.6-.25,210.9-.25Z"/>
  <path class="cls-1" d="M250.1,424.58c-70.3,0-140.6-.29-210.9,.25-14.22,.11-26.19-14.54-17.24-29.96,61.73-106.36,123.11-212.91,184.6-319.41,8.82-15.27,17.59-30.57,26.39-45.85,8.52-14.78,25.77-14.99,34.31-.23,43.66,75.48,87.24,151.01,130.83,226.53,26.78,46.4,53.56,92.81,80.31,139.22,8.36,14.51-.18,29.46-16.9,29.47-70.47,.04-140.93,.02-211.4,.02v-.02Zm-31.8-263c.12,2.61,.14,4.11,.27,5.6,3.53,41.97,8.06,83.86,10.78,125.91,.37,5.7,1.64,11.26,5.66,15.67,6.2,6.81,14.14,6.94,22.16,4.91,8.38-2.13,11.73-8.94,12.9-16.73,.91-6.07,.8-12.29,1.36-18.42,3.15-34.15,6.29-68.3,9.62-102.44,.98-10.01,1.23-19.93-.92-29.81-3.65-16.75-13.95-24.9-31.22-24.68-15.4,.19-25.7,9.13-28.71,25.22-.98,5.22-1.37,10.56-1.9,14.76Zm58.05,196.25c.04-14.91-11.23-26.26-26.08-26.28-14.89-.02-26.16,11.22-26.2,26.13-.04,14.98,11.09,26.18,26.06,26.2,14.99,.03,26.18-11.09,26.22-26.05Z"/>
  <path class="cls-2" d="M218.31,161.59c.53-4.2,.92-9.54,1.9-14.76,3.01-16.09,13.31-25.03,28.71-25.22,17.27-.22,27.57,7.93,31.22,24.68,2.15,9.88,1.89,19.8,.92,29.81-3.33,34.13-6.47,68.29-9.62,102.44-.57,6.13-.45,12.35-1.36,18.42-1.17,7.79-4.51,14.6-12.9,16.73-8.02,2.03-15.96,1.91-22.16-4.91-4.02-4.42-5.29-9.98-5.66-15.67-2.72-42.05-7.24-83.93-10.78-125.91-.13-1.49-.15-2.99-.27-5.6Z"/>
  <path class="cls-2" d="M276.35,357.83c-.04,14.96-11.23,26.08-26.22,26.05-14.96-.03-26.09-11.22-26.06-26.2,.04-14.92,11.3-26.15,26.2-26.13,14.85,.02,26.11,11.37,26.08,26.28Z"/>
</svg>