<?xml version="1.0" encoding="UTF-8"?>
<svg id="Capa_2" data-name="Capa 2" xmlns="http://www.w3.org/2000/svg" viewBox="0 0 1968.34 385.98">
  <defs>
    <style>
      .cls-1 {
        fill: #fff;
      }

      .cls-2 {
        fill: #92e1f6;
      }

      .cls-3 {
        fill: #83e3ff;
      }

      .cls-4 {
        fill: #fdfff9;
      }

      .cls-5 {
        fill: #e4363a;
      }

      .cls-6 {
        fill: #d12861;
      }

      .cls-7 {
        fill: #ffb9a5;
      }

      .cls-8 {
        fill: #ef6c91;
      }

      .cls-9 {
        fill: #a2eafd;
      }

      .cls-10 {
        fill: #222128;
      }

      .cls-11 {
        fill: #c1edff;
      }

      .cls-12 {
        fill: #dc9e8d;
      }

      .cls-13 {
        stroke-dasharray: 0 0 30.41 50.68;
      }

      .cls-13, .cls-14 {
        fill: none;
        stroke: #ef6c91;
        stroke-linecap: round;
        stroke-miterlimit: 10;
        stroke-width: 11px;
      }

      .cls-15 {
        fill: #6a5ae6;
      }

      .cls-16 {
        fill: #e1a88e;
      }

      .cls-17 {
        fill: #ffc3ac;
      }

      .cls-18 {
        fill: #e24481;
      }
    </style>
  </defs>
  <g>
    <path class="cls-11" d="M146.82,279.79c1.85-2.71,3.5-5.63,5.32-8.02,.66-.86,1.33-1.73,1.99-2.6l-7.32-.03v10.66Z"/>
    <path class="cls-11" d="M255.42,261.37c0-.09,0-.21,0-.3-.09,2.09-.9,3.97-2.18,5.45,1.55-1.43,2.22-3.24,2.19-5.14Z"/>
    <path class="cls-11" d="M260.92,168.75c-.48-.77-1-1.51-1.56-2.22-.61-.69-1.24-1.38-1.85-2.07-.13-.13-.25-.28-.39-.41h.01c-.4-.46-.8-.91-1.2-1.36l-.03,5.93c1.18,.11,4.15,.33,5.03,.14Z"/>
    <path class="cls-17" d="M113.17,119.34c.42,.4,.85,.77,1.27,1.13l.22-46.73c-3.6-3.41-7.26-6.77-11.19-9.78-1.35-1.04-2.72-2.04-4.14-2.98-12.01-7.93-19.26,4.79-16.58,15.9,2.76,11.44,11.7,23.09,20.72,32.73,3.32,3.55,6.65,6.84,9.69,9.73Zm-9.88-26.93c-.67,1.63-1.24,3.31-1.73,5.04,.14-3.61,1.35-7.14,3.17-10.3,.98-1.54,2.16-2.97,3.56-4.16,1.4-1.19,3.06-2.03,4.78-2.56-1.54,.94-3,1.91-4.22,3.17-1.21,1.25-2.32,2.6-3.2,4.11-.94,1.47-1.68,3.07-2.35,4.7Z"/>
    <path class="cls-10" d="M130.17,269.06l16.65,.08,7.32,.03c1.87-2.44,3.76-4.88,5.7-7.3l-28.85-.14c-.3,2.41-.57,4.85-.81,7.32Z"/>
    <path class="cls-10" d="M247.76,.58l-17.33-.08-43.35-.2-40.25-.19L123.93,0c-4.93-.02-8.94,3.95-8.97,8.88l-.31,64.85-.22,46.73-.1,21.78c2.13,.9,4.01,1.99,5.37,3.09l.6-127.98c.02-4.19,3.46-7.6,7.65-7.58l115.68,.55c4.19,.02,7.6,3.46,7.58,7.65l-.42,88.65c.54,.9,1.08,1.76,1.6,2.52,1.21,1.74,2.46,3.43,3.74,5.1l.49-104.7c.02-4.93-3.95-8.94-8.88-8.97ZM117.79,72.07c-.15,6.65-.28,13.3-.65,19.96h-.11c-.28-6.66-.32-13.31-.38-19.96,.03-6.65,.11-13.31,.25-19.96l.67-39.92h.11s.13,39.92,.13,39.92c.05,6.65,.04,13.31-.02,19.96ZM202.36,7.47l-38.18-.18c-1.28,0-2.33-1.06-2.32-2.34,0-1.28,1.06-2.33,2.34-2.32l38.18,.18c1.28,0,2.33,1.06,2.32,2.34,0,1.28-1.06,2.33-2.34,2.32Zm5.58-.47c-1.01,0-1.83-.83-1.82-1.84,0-1.01,.83-1.83,1.84-1.82,1.01,0,1.83,.83,1.82,1.84,0,1.01-.83,1.83-1.84,1.82Zm46.5,53.82h-.11c-.34-7.43-.35-14.87-.53-22.31-.03-7.44,0-14.87,.09-22.31l.04-5.58c.11-1.81-.45-3.56-1.65-4.87-2.43-2.95-6.66-1.91-10.27-2.14l-22.31-.23v-.11l22.31-.23,5.58-.04c1.95-.03,3.9,.81,5.23,2.25,1.36,1.41,2.03,3.47,1.93,5.37l.05,5.58c.1,7.43,.14,14.87,.13,22.31-.17,7.44-.16,14.87-.49,22.31Z"/>
    <path class="cls-10" d="M242.45,262.26l-29.36-.14c-3.7,3.67-6.88,5.99-8.17,6.87,12.88,.07,25.91,.24,35.79,.59,.02,0,.03,0,.05,0h2.18c5.1-.1,8.38-1.3,10.3-3.07,1.28-1.47,2.09-3.36,2.18-5.45-.05-3.93-.03-13.72,.03-25.56,0,0,0,0,0,0v-.06c.08-15.42,.21-34.26,.31-48.12l-.04-.04s.03-.03,.04-.05c.07-9.4,.12-16.51,.13-18.62h0l.03-5.93c-1.56-1.75-3.1-3.51-4.68-5.23-.22-.24-.45-.48-.67-.72l-.46,97.95c-.02,4.19-3.46,7.6-7.65,7.58Zm9.71-51.87l.4-47.43h.11l.4,47.43c.09,7.9,.13,15.81,.11,23.71-.18,7.91-.18,15.81-.51,23.72h-.11c-.33-7.9-.33-15.81-.51-23.72-.02-7.9,.02-15.81,.11-23.71Z"/>
    <path class="cls-3" d="M228.37,215.43l-52.34-.25c-.85,0-1.55-.71-1.55-1.56,0-.86,.71-1.55,1.56-1.55l50.74,.24-2.83-5.56-47.89-.23c-.85,0-1.55-.71-1.55-1.56,0-.85,.71-1.55,1.56-1.55l46.29,.22-2.83-5.56-43.44-.2c-.85,0-1.55-.71-1.55-1.56,0-.86,.71-1.55,1.56-1.55l41.84,.2-12.58-24.77-26.13-.12c-.85,0-1.55-.71-1.55-1.56,0-.85,.71-1.55,1.56-1.55l24.53,.12-2.83-5.56-21.68-.1c-.85,0-1.55-.71-1.55-1.56,0-.85,.71-1.55,1.56-1.55l20.08,.09-2.83-5.56-17.23-.08c-.85,0-1.55-.71-1.55-1.56,0-.85,.71-1.55,1.56-1.55l15.63,.07-15.31-30.13c-1.49-.2-2.96-.49-4.4-.84-1.87,5.88-4.89,11.62-7.17,16.85-1.48,3.38-2.98,6.76-4.43,10.16l7.64,.04c.15,0,.28,.07,.39,.17l.04,.02,.03,.08s.09,.08,.11,.14c.02,.05,0,.1,0,.14l.03,.08-.13,26.8-.03,.07s.01,.07,0,.11c-.02,.07-.08,.11-.12,.17l-.04,.09-.04,.02c-.11,.1-.25,.17-.4,.16l-17.86-.08c-.96,2.74-1.9,5.48-2.83,8.21,6.9,1.32,12.1,7.37,12.1,14.64v.06h0c-.02,2.15-.95,5.08-2.32,8.37-1.37,3.28-3.19,6.89-5,10.24-3.63,6.71-7.25,12.42-7.25,12.43l-.49,.27-.48-.27s-3.44-5.56-6.95-12.15c-3.93,14.55-7.1,29.68-9.13,46.18l28.85,.14c7.02-8.77,14.63-17.21,23.82-23.56,5.79-4,12.73-7.62,19.99-7.13,7.16,.48,17.24,5.79,17.77,13.82,.08,.09,.16,.19,.24,.28,1.84,2.25,.9,5.12-.94,7.79-2.49,3.6-5.16,6.62-7.62,9.06l29.36,.14c4.19,.02,7.63-3.39,7.65-7.58l.46-97.95c-.64-.69-1.28-1.38-1.94-2.09l-.47,99.73-19.79-38.95Z"/>
    <path class="cls-3" d="M243.64,10.33l-115.68-.55c-4.19-.02-7.63,3.39-7.65,7.58l-.6,127.98c.07,.05,.15,.11,.22,.16,5.33,4.51,7.54,11.45,6.59,17.99,1.13-2.37,2.28-4.93,3.38-7.5l.05-9.77s.03-.05,.03-.08c0-.05,0-.1,0-.14,.02-.06,.07-.09,.11-.14,.03-.04,.04-.07,.08-.1,.11-.1,.24-.16,.4-.16l3.59,.02c1.65-4.18,2.88-7.44,3.3-8.5,2.65-6.77,5.42-13.5,7.57-20.46,1.42-4.59,2.49-10.7,5-15.52-4.62-6.86-7.31-15.13-7.27-24.03,.03-7.27,1.9-14.11,5.13-20.09L125.12,12.19l117.81,.55c3.52,.02,6.35,3.18,6.34,7.07l-.39,83.53c.66,1.14,1.3,2.25,1.93,3.29l.42-88.65c.02-4.19-3.39-7.63-7.58-7.65ZM125.49,27.42h.11l-.07,54.06c.02,9.01-.02,18.02-.11,27.03-.24,9.01-.31,18.02-.71,27.03h-.11c-.24-9.01-.17-18.02-.26-27.03,.06-9.01,.17-18.02,.33-27.03l.82-54.05Z"/>
    <path class="cls-9" d="M242.93,12.74l-117.81-.55,22.78,44.84c7.26-13.41,21.47-22.5,37.79-22.43,23.59,.11,42.62,19.33,42.51,42.92-.11,23.59-19.32,42.62-42.92,42.51-1.9,0-3.76-.19-5.6-.44l15.31,30.13,43.19,.2c.85,0,1.55,.71,1.55,1.56,0,.85-.71,1.55-1.56,1.55l-41.59-.2,2.83,5.56,38.74,.18c.85,0,1.55,.71,1.55,1.56,0,.85-.71,1.55-1.56,1.55l-37.14-.18,2.83,5.56,34.29,.16c.85,0,1.55,.71,1.55,1.56,0,.85-.71,1.55-1.56,1.55l-32.69-.15,12.58,24.77,16.98,.08c.85,0,1.55,.71,1.55,1.56,0,.85-.71,1.55-1.56,1.55l-15.38-.07,2.83,5.56,12.53,.06c.85,0,1.55,.71,1.55,1.56,0,.85-.71,1.55-1.56,1.55l-10.93-.05,2.83,5.56,8.08,.04c.85,0,1.55,.71,1.55,1.56,0,.85-.71,1.55-1.56,1.55l-6.48-.03,19.79,38.95,.47-99.73c-13.4-14.42-29.55-31.81-26.22-52.89,.46-2.93,1.38-5.86,3.18-8.22,1.8-2.36,4.58-4.09,7.55-4.11,.49,0,.95,.05,1.42,.11,4.24-.41,6.68,2.59,8.07,4.69,.01,.02,.03,.04,.04,.05,2.39,2.62,4.4,5.94,6.21,9.06l.39-83.53c.02-3.88-2.82-7.05-6.34-7.07Z"/>
    <path class="cls-3" d="M202.38,2.81l-38.18-.18c-1.28,0-2.34,1.04-2.34,2.32,0,1.28,1.04,2.34,2.32,2.34l38.18,.18c1.28,0,2.33-1.04,2.34-2.32,0-1.28-1.04-2.33-2.32-2.34Z"/>
    <path class="cls-3" d="M207.96,3.34c-1.01,0-1.84,.81-1.84,1.82,0,1.01,.81,1.84,1.82,1.84,1.01,0,1.84-.81,1.84-1.82,0-1.01-.81-1.84-1.82-1.84Z"/>
    <path class="cls-15" d="M185.28,120.03c23.59,.11,42.8-18.92,42.92-42.51,.11-23.59-18.92-42.8-42.51-42.92-16.32-.08-30.53,9.01-37.79,22.43-3.23,5.98-5.1,12.81-5.13,20.09-.04,8.9,2.64,17.17,7.27,24.03,.84-1.6,1.84-3.05,3.07-4.25,.19-.39,.36-.74,.5-1.01,.26-.5,.67-.89,1.03-1.31,1.04-1.22,2.54-1.93,4.26-2.28,2.89-8.82,10.03-15.69,19.01-18.18-3.98-2.55-6.63-6.99-6.61-12.06,.04-7.88,6.45-14.23,14.33-14.19s14.23,6.45,14.19,14.33c-.02,5.08-2.71,9.49-6.72,12,11.42,3.29,19.82,13.66,20.16,26.05l-37.64-.18c-.01,.14,0,.28-.02,.42-.04,.21-.08,.41-.12,.62,2.34,5.8,1.66,11.8-.2,17.66,1.44,.35,2.91,.64,4.4,.84,1.84,.25,3.7,.43,5.6,.44Zm-18.56-76.98c-4.71,2.42-8.96,5.8-12.06,10.08-.91,.97-1.42,2.22-2.15,3.31l-1.01,1.69-.76,1.82c-.49,1.22-1.1,2.4-1.5,3.65l-1.03,3.82c-.44,1.25-.61,2.56-.79,3.87l-.6,3.93-.42,7.97h-.11c-.1-2.66-.26-5.34-.22-8.03l.43-4.01c.14-1.34,.26-2.69,.66-3.98,1.08-5.31,3.56-10.27,6.81-14.56,3.27-4.32,7.68-7.68,12.5-10.03,4.84-2.32,10.11-3.73,15.45-4.09v.11c-5.29,.5-10.49,2.05-15.21,4.46Z"/>
    <path class="cls-1" d="M174.14,96.2c.97,1.02,1.58,2.39,1.47,3.84l37.64,.18c-.34-12.39-8.73-22.76-20.16-26.05,4.01-2.51,6.7-6.92,6.72-12,.04-7.88-6.32-14.29-14.19-14.33s-14.29,6.32-14.33,14.19c-.02,5.07,2.62,9.51,6.61,12.06-8.98,2.49-16.12,9.37-19.01,18.18,5.42-1.09,13.02,1.56,15.26,3.91Z"/>
    <path class="cls-2" d="M131.15,153.03c.57-1.36,1.12-2.7,1.64-3.99l-1.61-1.44-.03,5.42Z"/>
    <path class="cls-2" d="M170.69,147.79l-11.86,10.34c-.59,1.66-1.18,3.32-1.76,4.96l13.5,8.97,.11-24.27Z"/>
    <path class="cls-2" d="M156.65,164.3c-.97,2.75-1.94,5.49-2.89,8.21l15.36,.07-12.47-8.29Z"/>
    <path class="cls-1" d="M171.59,173.68l.04-.02,.04-.09c.04-.06,.1-.1,.12-.17,.01-.04,0-.07,0-.11l.03-.07,.13-26.8-.03-.08s0-.1,0-.14c-.02-.06-.07-.09-.11-.14l-.03-.08-.04-.02c-.11-.1-.24-.17-.39-.17l-7.64-.04c-.18,.41-.35,.83-.52,1.24l6.51,.03-9.95,8.67c-.16,.45-.35,.89-.5,1.34-.13,.36-.26,.72-.38,1.08l11.86-10.34-.11,24.27-13.5-8.97c-.14,.4-.29,.81-.43,1.21l12.47,8.29-15.36-.07c-.14,.41-.29,.83-.43,1.24l17.86,.08c.16,0,.29-.07,.4-.16Z"/>
    <path class="cls-2" d="M133.29,147.82c.13-.32,.26-.64,.38-.95h-1.46s1.08,.95,1.08,.95Z"/>
    <path class="cls-2" d="M163.16,147c-1.21,2.88-2.37,5.77-3.44,8.71l9.95-8.67-6.51-.03Z"/>
    <path class="cls-1" d="M130.17,145.77s-.05,.06-.08,.1c-.04,.05-.09,.08-.11,.14-.02,.05,0,.1,0,.14,0,.03-.03,.05-.03,.08l-.05,9.77c.43-.99,.85-1.98,1.26-2.96l.03-5.42,1.61,1.44c.17-.41,.33-.82,.49-1.22l-1.08-.96h1.46c.17-.42,.33-.83,.49-1.23l-3.59-.02c-.15,0-.29,.07-.4,.16Z"/>
    <path class="cls-1" d="M177.79,151.19c0,.85,.69,1.56,1.55,1.56l17.23,.08,41.59,.2c.85,0,1.56-.69,1.56-1.55,0-.85-.69-1.56-1.55-1.56l-43.19-.2-15.63-.07c-.85,0-1.56,.69-1.56,1.55Z"/>
    <path class="cls-1" d="M177.75,159.85c0,.85,.69,1.56,1.55,1.56l21.68,.1,37.14,.18c.85,0,1.56-.69,1.56-1.55,0-.85-.69-1.56-1.55-1.56l-38.74-.18-20.08-.09c-.85,0-1.56,.69-1.56,1.55Z"/>
    <path class="cls-1" d="M177.71,168.51c0,.85,.69,1.56,1.55,1.56l26.13,.12,32.69,.15c.85,0,1.56-.69,1.56-1.55,0-.85-.69-1.56-1.55-1.56l-34.29-.16-24.53-.12c-.85,0-1.56,.69-1.56,1.55Z"/>
    <path class="cls-2" d="M147.54,226.32c.22-.35,.49-.8,.84-1.37,.82-1.35,1.96-3.26,3.23-5.47,2.54-4.42,5.58-10.05,7.6-14.89,1.35-3.22,2.23-6.11,2.23-7.93h0v-.07c0-6.76-4.89-12.38-11.33-13.54-.26,.76-.52,1.52-.78,2.28,5.04,.8,8.9,5.13,8.9,10.39v.04h0c-.03,5.83-4.75,10.52-10.56,10.52h-.05c-1.66,0-3.21-.43-4.6-1.12-.86,2.9-1.69,5.81-2.5,8.74,1.9,3.64,3.84,7.05,5.27,9.49,.76,1.29,1.34,2.27,1.73,2.9Z"/>
    <path class="cls-1" d="M147.54,227.98l.49-.27s3.62-5.72,7.25-12.43c1.81-3.36,3.63-6.96,5-10.24,1.37-3.29,2.31-6.22,2.32-8.36h0v-.07c0-7.27-5.21-13.32-12.1-14.64-.12,.37-.25,.73-.37,1.1,6.45,1.15,11.33,6.77,11.33,13.54v.07h0c0,1.82-.88,4.71-2.23,7.93-2.02,4.84-5.07,10.47-7.6,14.89-1.27,2.21-2.41,4.11-3.23,5.47-.35,.57-.62,1.01-.84,1.37-.39-.64-.97-1.61-1.73-2.9-1.43-2.44-3.37-5.85-5.27-9.49-.15,.54-.29,1.09-.43,1.63,3.5,6.6,6.94,12.14,6.95,12.15l.48,.27Z"/>
    <path class="cls-2" d="M147.69,204.98c5.08,0,9.21-4.11,9.24-9.19v-.05c0-4.67-3.49-8.5-8.01-9.11-1.92,5.73-3.75,11.48-5.49,17.27,1.27,.66,2.68,1.08,4.21,1.08h.05Z"/>
    <path class="cls-1" d="M147.69,206.3c5.81,0,10.53-4.69,10.56-10.51h0v-.05c0-5.26-3.86-9.59-8.9-10.39-.14,.42-.28,.85-.42,1.28,4.52,.61,8.01,4.44,8.01,9.11v.05c-.02,5.09-4.16,9.2-9.24,9.19h-.05c-1.53,0-2.94-.42-4.21-1.08-.13,.43-.26,.85-.39,1.28,1.39,.69,2.94,1.11,4.6,1.12h.05Z"/>
    <path class="cls-1" d="M174.56,196.31c0,.85,.69,1.56,1.55,1.56l43.44,.2,15.38,.07c.85,0,1.56-.69,1.56-1.55,0-.85-.69-1.56-1.55-1.56l-16.98-.08-41.84-.2c-.85,0-1.56,.69-1.56,1.55Z"/>
    <path class="cls-1" d="M174.52,204.97c0,.85,.69,1.56,1.55,1.56l47.89,.23,10.93,.05c.85,0,1.56-.69,1.56-1.55,0-.86-.69-1.56-1.55-1.56l-12.53-.06-46.29-.22c-.85,0-1.56,.69-1.56,1.55Z"/>
    <path class="cls-1" d="M174.48,213.62c0,.85,.69,1.56,1.55,1.56l52.34,.25,6.48,.03c.85,0,1.56-.69,1.56-1.55,0-.85-.69-1.56-1.55-1.56l-8.08-.04-50.74-.24c-.85,0-1.56,.69-1.56,1.55Z"/>
    <path class="cls-17" d="M260.08,182.85c.79-.68,1.6-1.36,2.53-1.85,.82-.41,1.69-.73,2.6-.91-.45-2.55-1.17-5.05-2.21-7.43-.59-1.35-1.29-2.65-2.08-3.91-.87,.19-3.84-.03-5.03-.14h0c-.01,2.12-.06,9.22-.13,18.62,1.28-1.6,2.73-3.06,4.32-4.39Z"/>
    <path class="cls-17" d="M333.27,354.86c.54-1.31,.54-3.08,.23-5.05-.73-4.74-3.2-10.63-3.87-14.01-1.48-7.4-2.42-14.9-3.04-22.41-1.25-15.1-1.14-30.27-1.27-45.41-.23-26.9-1.4-54.33-11.29-79.5-1.25-3.17-2.61-6.31-4.15-9.41-9.55-19.18-24.87-33.12-39.2-48.16-5.07-5.32-10.01-10.79-14.54-16.67-1.28-1.67-2.54-3.36-3.74-5.1-.53-.76-1.06-1.62-1.6-2.52-.63-1.04-1.27-2.15-1.93-3.29-1.81-3.12-3.82-6.44-6.21-9.06,3.45,5.18,12.09,14.52-.41,20.62-9.84,4.8-14.8-7.69-16.7-14.85-.86-3.26,.63-6.62,3.48-8.41,2.12-1.33,3.94-1.94,5.52-2.09-.46-.06-.93-.11-1.42-.11-2.97,.02-5.75,1.75-7.55,4.11-1.8,2.36-2.72,5.29-3.18,8.22-3.32,21.08,12.82,38.47,26.22,52.89,.66,.71,1.3,1.4,1.94,2.09,.22,.24,.45,.49,.67,.72,1.59,1.72,3.13,3.49,4.68,5.23,.4,.45,.8,.89,1.2,1.34l.06-.07c2.7,2.3,4.75,5.29,6.31,8.47,1.53,3.21,2.48,6.69,2.96,10.22,.48,3.54,.37,7.14-.12,10.67-.28,1.76-.75,3.48-1.16,5.21-.54,1.69-1.17,3.35-1.79,5l-.1-.03c.36-1.73,.76-3.44,1.17-5.15,.24-1.74,.66-3.44,.82-5.18,.17-1.73,.46-3.46,.42-5.2,.13-1.74,.02-3.48-.09-5.22-.08-.79-.2-1.58-.33-2.36-.69,.55-1.41,1.02-2.09,1.53-.82,.58-1.73,1.04-2.57,1.62-1.67,1.15-3.29,2.42-4.8,3.82l-.04-.03c-.1,13.86-.23,32.7-.31,48.12v-.05c5.44,.97,10.65,3.09,15.35,5.99,4.67,2.94,8.93,6.65,12.26,11.11,3.28,4.46,6.03,9.4,7.59,14.74,.21,.66,.46,1.31,.63,1.98l.43,2.04,.84,4.07c.37,2.74,.5,5.51,.7,8.25h-.11c-.49-2.71-.83-5.43-1.34-8.12l-1-3.98-.49-1.99c-.19-.65-.46-1.28-.69-1.93l-1.35-3.86c-.51-1.26-1.17-2.46-1.74-3.69l-.87-1.85-1.07-1.74c-.75-1.13-1.38-2.36-2.23-3.43-3.18-4.44-7.29-8.17-11.86-11.17-4.57-2.99-9.69-5.23-15.06-6.34-.06,11.85-.08,21.63-.03,25.56,0,.09,0,.22,0,.3,.03,1.91-.63,3.71-2.19,5.14-1.91,1.77-5.2,2.96-10.3,3.08h-2.18s-.03-.01-.05-.01c-9.87-.35-22.91-.52-35.79-.59-.39,.27-.62,.42-.62,.42h0c-1.22,.98-2.41,1.93-3.57,2.87h0s0,0,0,0c-1.65,1.34-3.22,2.65-4.61,3.93-3.64,3.37-7.38,6.85-11.12,10.38,.69,.35,1.38,.7,2.07,1.04,16.23,7.98,31.56,13.22,43.35,17,11.7,3.75,19.91,6.06,22,8.16,2.81,2.83,4.54,6.56,5.82,10.34,2.17,6.35,3.31,13.15,3.2,19.86-.07,3.98-2.23,10.56,1.37,13.56,2.42,2.01,5.07,3.79,7.87,5.34,12.84,7.13,29.12,9.31,43.35,5.08,6.06-1.8,11.75-4.73,16.64-8.96,1.04-.9,2.07-1.88,2.6-3.15ZM237.24,118.42c2.7-.29,5.34-1.08,7.67-2.36,1.17-.64,2.16-1.52,3.15-2.35,1.04-.82,1.82-1.87,2.75-2.91l.1,.05c-.39,1.34-1.12,2.6-2.1,3.63-.99,1.02-2.23,1.78-3.51,2.34-2.55,1.17-5.32,1.72-8.06,1.7v-.11Zm14.2-.41c-.7,.86-1.64,1.46-2.57,1.97-1.88,1.02-3.93,1.62-6,1.85l-.02-.11c1.99-.53,3.9-1.36,5.56-2.48,.82-.58,1.51-1.29,2.22-1.95,.72-.67,1.27-1.46,1.92-2.31l.1,.03c-.08,1.08-.57,2.11-1.22,2.99Zm25.72,22.84c-.24,.93-.73,1.77-1.32,2.52-.59,.76-1.41,1.29-2.21,1.78-1.6,1.01-3.39,1.68-5.24,1.87v-.11c1.74-.49,3.36-1.37,4.74-2.47,.69-.56,1.28-1.22,1.92-1.82,.69-.57,1.25-1.24,2.01-1.84l.09,.06Zm-11.49,5.43l-.09-.06c1.03-1.75,2.39-3.32,4.03-4.6,.81-.64,1.71-1.24,2.73-1.55,1.02-.28,2.11-.38,3.14-.13v.11c-.98,.37-1.9,.6-2.77,1.04-.86,.41-1.77,.74-2.61,1.25-1.65,1.04-3.16,2.39-4.43,3.95Zm-4.34-.18l-.09-.05c1.43-2.7,3.45-5.11,5.94-6.98,1.22-.96,2.61-1.76,4.12-2.21,1.51-.46,3.12-.53,4.65-.3v.11c-1.5,.38-2.95,.6-4.3,1.21-1.35,.55-2.73,1.07-3.97,1.9-2.48,1.63-4.65,3.81-6.33,6.32Zm16.4-1.09c-1.12,1.17-2.49,2.04-3.83,2.89-2.69,1.72-5.54,3.11-8.48,4.27l-.04-.1c2.8-1.44,5.52-3.05,8.04-4.89,1.25-.93,2.42-1.96,3.58-2.97,1.18-.99,2.26-2.07,3.27-3.3l.1,.05c-.48,1.56-1.53,2.86-2.63,4.04Z"/>
    <path class="cls-17" d="M119.92,145.5c-.06-.05-.15-.11-.22-.16-1.36-1.1-3.24-2.19-5.37-3.09-.47-.2-.93-.4-1.41-.57-3.08-1.11-6.48-1.7-9.45-1.3-2.32,.31-4.38,1.21-5.77,3.02-4.17,5.43-4.76,12.9-2.75,19.29,1.1,3.51,2.93,6.26,5.27,8.55,.41,.16,.83,.25,1.45,.2,1.41-.11,2.73-.7,4.16-.95-2.82-2.56-4.33-6.8-1.79-14.57,3.51-10.75,10.44-9.65,13.98-8.24,1.4,.56,2.48,1.71,2.96,3.13,4.03,11.88-1.55,19.5-4.48,22.49-.08,.08-.18,.14-.27,.21,.19,.14,.4,.24,.59,.39,.47,.36,.93,.7,1.46,.95,.65,.31,1.51-.26,2.5-1.42,.06-.06,.1-.13,.16-.19,1.62-2,3.58-5.58,5.57-9.76,.95-6.54-1.25-13.48-6.59-17.99Zm-15.13,5.28c-1.12,1.54-2.06,3.22-2.61,5.03-.62,1.78-.97,3.67-.94,5.58-.08,1.92,.26,3.82,.57,5.77-.34-.91-.7-1.84-.96-2.8-.16-.97-.44-1.95-.44-2.95-.2-2,.17-4.03,.75-5.95,1.31-3.81,4.1-7.1,7.62-8.87-1.52,1.24-2.87,2.64-3.99,4.19Z"/>
    <path class="cls-5" d="M234.55,89.54c-1.58,.15-3.4,.77-5.52,2.09-2.86,1.79-4.35,5.15-3.48,8.41,1.9,7.16,6.86,19.66,16.7,14.85,12.5-6.1,3.85-15.43,.41-20.62-.01-.02-.03-.04-.04-.05-1.39-2.1-3.83-5.1-8.07-4.69Z"/>
    <path class="cls-16" d="M248.81,114.48c.99-1.03,1.71-2.3,2.1-3.63l-.1-.05c-.93,1.04-1.71,2.09-2.75,2.91-1,.83-1.98,1.71-3.15,2.35-2.33,1.27-4.97,2.07-7.67,2.36v.11c2.74,.02,5.51-.53,8.06-1.7,1.28-.56,2.52-1.32,3.51-2.34Z"/>
    <path class="cls-16" d="M250.64,117.29c-.71,.66-1.39,1.37-2.22,1.95-1.67,1.11-3.58,1.94-5.56,2.48l.02,.11c2.07-.23,4.12-.83,6-1.85,.93-.51,1.87-1.11,2.57-1.97,.65-.88,1.15-1.91,1.22-2.99l-.1-.03c-.65,.86-1.21,1.64-1.92,2.31Z"/>
    <path class="cls-16" d="M271.64,137.87c1.35-.61,2.8-.83,4.3-1.21v-.11c-1.52-.24-3.14-.16-4.65,.3-1.51,.45-2.9,1.26-4.12,2.21-2.49,1.87-4.5,4.28-5.94,6.98l.09,.05c1.69-2.51,3.85-4.7,6.33-6.32,1.24-.83,2.63-1.35,3.97-1.9Z"/>
    <path class="cls-16" d="M275.49,140.04v-.11c-1.03-.25-2.12-.15-3.14,.13-1.02,.31-1.91,.91-2.73,1.55-1.64,1.28-3,2.84-4.03,4.6l.09,.06c1.27-1.55,2.78-2.9,4.43-3.95,.84-.52,1.75-.85,2.61-1.25,.87-.43,1.78-.67,2.77-1.04Z"/>
    <path class="cls-16" d="M276.99,144.22c-1.16,1.01-2.33,2.03-3.58,2.97-2.52,1.84-5.24,3.45-8.04,4.89l.04,.1c2.94-1.16,5.8-2.56,8.48-4.27,1.34-.85,2.71-1.72,3.83-2.89,1.09-1.17,2.15-2.48,2.63-4.04l-.1-.05c-1.01,1.23-2.09,2.31-3.27,3.3Z"/>
    <path class="cls-16" d="M257.5,164.46c.62,.69,1.24,1.38,1.85,2.07,.56,.71,1.08,1.45,1.56,2.22,.78,1.26,1.49,2.56,2.08,3.91,1.05,2.38,1.76,4.88,2.21,7.43-.91,.18-1.78,.51-2.6,.91-.93,.49-1.74,1.17-2.53,1.85-1.59,1.32-3.04,2.79-4.32,4.39-.01,.02-.03,.03-.04,.05l.04,.04,.04,.03c1.51-1.4,3.12-2.67,4.8-3.82,.84-.57,1.75-1.03,2.57-1.62,.68-.52,1.4-.98,2.09-1.53,.13,.78,.25,1.57,.33,2.36,.11,1.74,.23,3.48,.09,5.22,.04,1.74-.25,3.47-.42,5.2-.16,1.74-.58,3.44-.82,5.18-.4,1.7-.81,3.41-1.17,5.15l.1,.03c.63-1.65,1.25-3.31,1.79-5,.4-1.73,.88-3.45,1.16-5.21,.49-3.53,.6-7.13,.12-10.67-.48-3.53-1.42-7.01-2.96-10.22-1.55-3.19-3.6-6.17-6.31-8.47l-.06,.07h-.01c.14,.14,.25,.29,.39,.42Z"/>
    <path class="cls-16" d="M255.45,235.5c5.38,1.11,10.49,3.35,15.06,6.34,4.56,3,8.68,6.73,11.86,11.17,.85,1.06,1.48,2.29,2.23,3.43l1.07,1.74,.87,1.85c.58,1.23,1.23,2.43,1.74,3.69l1.35,3.86c.22,.64,.5,1.27,.69,1.93l.49,1.99,1,3.98c.5,2.69,.85,5.41,1.34,8.12h.11c-.21-2.75-.33-5.52-.7-8.26l-.84-4.07-.43-2.04c-.17-.67-.42-1.32-.63-1.98-1.57-5.34-4.31-10.28-7.59-14.74-3.33-4.46-7.58-8.16-12.26-11.11-4.7-2.91-9.91-5.02-15.34-5.99v.05s-.02,.06-.02,.06c0,0,0,0,0,0Z"/>
    <path class="cls-5" d="M120.98,150.82c-.48-1.42-1.57-2.58-2.96-3.13-3.55-1.42-10.48-2.51-13.98,8.24-2.54,7.77-1.02,12.01,1.79,14.57,.4-.07,.8-.13,1.22-.12,3.3,.02,6.51,1.25,9.19,3.15,.09-.07,.19-.13,.27-.21,2.93-2.99,8.51-10.62,4.48-22.49Z"/>
    <path class="cls-16" d="M101.17,155.47c-.58,1.92-.95,3.95-.75,5.95,0,1,.28,1.97,.44,2.95,.26,.96,.61,1.89,.96,2.8-.31-1.95-.65-3.85-.57-5.77-.03-1.91,.32-3.8,.94-5.58,.55-1.81,1.49-3.49,2.61-5.03,1.13-1.55,2.47-2.95,3.99-4.19-3.52,1.78-6.31,5.06-7.62,8.87Z"/>
    <path class="cls-16" d="M273.14,144.44c-1.39,1.1-3.01,1.97-4.76,2.47v.11c1.86-.19,3.66-.86,5.25-1.87,.8-.5,1.62-1.03,2.21-1.78,.59-.75,1.08-1.58,1.32-2.52l-.09-.06c-.76,.6-1.33,1.27-2.01,1.84-.64,.6-1.23,1.25-1.92,1.82Z"/>
    <path class="cls-16" d="M113.05,80.43c-1.72,.52-3.38,1.37-4.78,2.56-1.39,1.19-2.57,2.62-3.56,4.16-1.82,3.16-3.03,6.69-3.17,10.3,.49-1.73,1.06-3.41,1.73-5.04,.68-1.63,1.42-3.22,2.35-4.7,.87-1.52,1.99-2.86,3.2-4.11,1.22-1.26,2.68-2.23,4.22-3.17Z"/>
    <path class="cls-4" d="M124.34,108.5c.09,9.01,.02,18.02,.26,27.03h.11c.39-9.01,.46-18.02,.71-27.02,.09-9.01,.13-18.02,.11-27.03l.07-54.06h-.11l-.82,54.05c-.16,9.01-.27,18.02-.33,27.03Z"/>
    <path class="cls-4" d="M166.48,42.56c-4.82,2.35-9.23,5.71-12.5,10.03-3.25,4.29-5.73,9.26-6.81,14.56-.4,1.3-.53,2.64-.66,3.98l-.43,4.01c-.04,2.69,.12,5.37,.22,8.03h.11s.42-7.98,.42-7.98l.6-3.93c.18-1.31,.35-2.62,.79-3.87l1.03-3.82c.4-1.25,1.01-2.43,1.5-3.65l.76-1.82,1.01-1.69c.73-1.09,1.24-2.34,2.15-3.31,3.1-4.28,7.35-7.66,12.06-10.08,4.71-2.42,9.91-3.96,15.21-4.46v-.11c-5.34,.36-10.61,1.77-15.45,4.09Z"/>
    <path class="cls-7" d="M138.78,287.28c-.82,.37-1.57,.62-2.26,.74,.15,.02,.3,.03,.45,.04,.62-.22,1.22-.48,1.81-.78Z"/>
    <path class="cls-7" d="M185,286.59c3.73-3.53,7.47-7.02,11.12-10.38-.97-.13-1.91-.41-2.81-.78-.9-.37-1.75-.87-2.58-1.41-1.54-1.18-3.05-2.66-3.54-4.61,.62,.76,1.29,1.41,1.98,2.02,.7,.61,1.41,1.2,2.19,1.71,1.48,1.12,3.13,1.99,4.76,3.07,1.39-1.28,2.96-2.59,4.61-3.93-1.45,.18-2.97,.18-4.42-.23-1.46-.35-2.84-1.05-4.07-1.91-2.4-1.82-4.28-4.34-5.05-7.19,.77,1.25,1.62,2.41,2.56,3.48,.95,1.06,1.96,2.06,3.12,2.85,1.1,.87,2.37,1.51,3.68,1.99,1.31,.55,2.73,.75,4.18,1.02,1.16-.94,2.35-1.89,3.57-2.87-12.45,.07-15.69-11.08-15.69-11.08,0,0,8.25-13.71,16.93-21.27,3.95-3.44,12.01,3.3,15.89,7.94-.54-8.03-10.62-13.33-17.77-13.82-7.27-.49-14.2,3.13-19.99,7.13-9.19,6.34-16.8,14.78-23.82,23.56-1.94,2.42-3.83,4.86-5.7,7.3-.66,.87-1.33,1.74-1.99,2.6-1.82,2.39-3.47,5.31-5.32,8.02-1.68,2.45-3.52,4.73-5.82,6.25-.66,.6-1.33,1.21-2.06,1.75-.78,.45-1.53,1-2.41,1.29-1.68,.77-3.59,.97-5.44,.82-3.71-.44-7.06-2.57-9.15-5.47,1.36,1.16,2.82,2.16,4.37,2.94,1.55,.77,3.2,1.34,4.89,1.46,1.68,.21,3.41,.04,5.04-.53,.01,0,.02,0,.03-.01-1.43,.08-2.91-.09-4.27-.73-1.82-.86-3.26-2.37-4.32-4.03-1.01-1.71-1.68-3.58-2.05-5.48-.37-1.91-.55-3.84-.39-5.77,.28,1.9,.66,3.76,1.19,5.57,.53,1.8,1.16,3.58,2.17,5.12,.87,1.5,2.07,2.76,3.52,3.68-2.31-2.49-2.84-7.69-2.48-12.21,.15-1.82,.33-3.59,.51-5.37,.24-2.47,.51-4.91,.81-7.32,2.02-16.5,5.2-31.63,9.13-46.18,.15-.54,.29-1.09,.43-1.63,.8-2.93,1.64-5.85,2.5-8.74,.13-.43,.26-.85,.39-1.28,1.74-5.8,3.58-11.54,5.49-17.27,.14-.43,.28-.85,.42-1.28,.26-.76,.52-1.52,.78-2.28,.12-.37,.25-.73,.37-1.1,.93-2.73,1.87-5.47,2.83-8.21,.14-.41,.29-.83,.43-1.24,.95-2.73,1.92-5.46,2.89-8.21,.14-.4,.29-.81,.43-1.21,.58-1.65,1.17-3.3,1.76-4.96,.13-.36,.25-.72,.38-1.08,.16-.45,.34-.89,.5-1.34,1.07-2.93,2.23-5.83,3.44-8.71,.17-.41,.34-.83,.52-1.24,1.45-3.4,2.95-6.77,4.43-10.16,2.29-5.23,5.31-10.97,7.17-16.85,1.86-5.86,2.53-11.87,.2-17.66-4.59,24.61-14.37,21.49-23.46,18.24-7.21-2.58-1.34-17.35,1.09-22.44-1.23,1.21-2.24,2.65-3.07,4.25-2.52,4.81-3.58,10.93-5,15.52-2.16,6.96-4.92,13.69-7.57,20.46-.42,1.07-1.64,4.33-3.3,8.5-.16,.41-.32,.82-.49,1.24-.13,.31-.25,.63-.38,.95-.16,.4-.33,.81-.49,1.22-.52,1.29-1.07,2.63-1.64,3.99-.41,.98-.83,1.97-1.26,2.96-1.1,2.57-2.25,5.13-3.38,7.5-1.99,4.17-3.95,7.76-5.57,9.76,0,0,.01-.02,.02-.03-1.16,1.81-2.2,3.66-3.22,5.53-1.01,1.87-2.03,3.74-2.97,5.65-2.02,3.76-3.86,7.6-5.98,11.34,1.31-4.1,3.11-8,5.03-11.83,1.02-1.89,2.04-3.78,3.22-5.58,1.13-1.72,2.32-3.41,3.75-4.9-.99,1.17-1.85,1.73-2.5,1.42-.53-.25-.99-.59-1.46-.95-.18-.14-.4-.25-.59-.39-2.67-1.9-5.89-3.13-9.19-3.15-.42,0-.82,.05-1.22,.12-1.43,.25-2.75,.84-4.16,.95-1.71,.89-3.09,2.18-4.32,3.58-1.23,1.4-2.33,2.93-3.28,4.56-1.03,1.58-1.91,3.25-2.78,4.93-.87,1.68-1.7,3.39-2.53,5.12,.86-3.75,2.43-7.3,4.4-10.62,1.04-1.62,2.17-3.22,3.59-4.56,1.4-1.34,3.03-2.53,4.92-3.01-.62,.05-1.04-.04-1.45-.2-.5-.2-.98-.51-1.71-.92-5.6-3.1-12.8-4.39-18.41-.77-1.18,.98-2.3,2-3.34,3.08-1.11,1.17-2.22,2.34-3.17,3.64-1.01,1.25-1.92,2.58-2.77,3.95-.88,1.36-1.6,2.8-2.41,4.25,.38-1.6,.93-3.17,1.69-4.65,.71-1.5,1.66-2.87,2.64-4.21,1.05-1.29,2.18-2.51,3.45-3.58,.93-.78,1.93-1.46,2.98-2.05-1.72-1.36-3.13-2.14-5.42-2.45-3.86-.52-7.35,.38-10.53,2.07-6,3.17-10.93,9.15-15.22,13.96-7.75,8.68-14.8,18.18-19.45,28.91-5.35,12.33-7.18,25.74-7.24,39.09-.07,18.05,.65,36.07-1.43,53.85-.86,7.32-2.19,14.61-4.26,21.83-5.43,18.88-34.59,26.59,4.26,49.17,1.42,.83,2.91,1.67,4.51,2.53,10.85,5.86,27.72,11.75,37.54,1.29,.47-.5,.88-1.05,1.29-1.6,.17-.22,.37-.43,.53-.66,3.62-5.16,5.18-11.76,9.44-16.45,7.89-8.69,18.83-14.85,30.28-17.52,.84-.2,1.67-.42,2.52-.58,13.09-2.44,27.61-1.95,38.29-11.26,.89-.77,1.72-1.59,2.55-2.42,7.33-7.32,12.62-16.51,19.49-24.23,5.84-6.55,12.26-12.85,18.69-18.94Zm-32.86-157.24c-1.62-.7-3.2-1.51-4.46-2.79,1.7,.51,3.24,1.23,4.85,1.79,1.57,.66,3.14,1.14,4.85,1.61-1.77,.42-3.58-.04-5.24-.61Zm-1.92-5.83c1.39,.77,2.84,1.44,4.38,1.82,1.51,.47,3.08,.73,4.67,.78,1.59,.13,3.19-.06,4.83-.19-1.53,.57-3.16,.97-4.83,1.02-1.67,.12-3.35-.16-4.97-.58-3.2-.97-6.17-2.89-8.03-5.62,1.24,1.07,2.56,2,3.96,2.77Zm-5.54,24.87c1.47,.63,2.84,1.54,3.93,2.72,1.13,1.16,1.78,2.66,2.21,4.14-.84-1.31-1.63-2.61-2.79-3.56-1.12-.97-2.35-1.8-3.75-2.31-1.36-.59-2.83-.92-4.32-1.18-1.49-.24-3.02-.37-4.57-.39,3.02-.79,6.3-.54,9.3,.58Zm1.59,6.87c-1.51-1.11-3.03-1.91-4.73-2.44-1.67-.62-3.42-.96-5.22-1.46,1.86-.39,3.76-.09,5.57,.45,.88,.35,1.76,.75,2.53,1.32,.76,.59,1.43,1.3,1.85,2.14Zm-5.36,4.45c1.27,.71,2.61,1.26,3.95,1.82,1.34,.57,2.73,.98,4.15,1.45-3,0-5.92-1-8.59-2.31-2.62-1.42-5.13-3.13-7.07-5.41,2.51,1.59,4.95,3.17,7.56,4.45Zm-86.92,33.22c-1.35-.29-2.73-.38-4.12-.48-1.39-.1-2.79-.14-4.22-.19,2.76-.76,5.67-.82,8.52-.39,1.41,.3,2.84,.65,4.12,1.38,1.27,.71,2.43,1.7,3.1,2.98-2.06-1.97-4.68-2.88-7.4-3.29Zm16.64-24.56c.82-.01,1.65-.02,2.48,.14,.8,.16,1.69,.46,2.22,1.13-.77-.28-1.53-.31-2.3-.31-.77,.02-1.54,.02-2.32,.11-1.57,.05-3.13,.27-4.78,.19,1.47-.79,3.08-1.08,4.71-1.27Zm5.07,28.39c-1.48-.29-2.99-.37-4.51-.47-1.52-.09-3.05-.13-4.6-.15,3.01-.81,6.17-.86,9.27-.45,1.54,.3,3.09,.65,4.51,1.34,1.42,.69,2.74,1.64,3.68,2.88-2.5-1.84-5.37-2.75-8.36-3.16Zm7.88-26.49c1.84-.95,3.93-1.19,6-1.13,1.03,.11,2.06,.3,3.04,.67,.97,.37,1.87,.94,2.6,1.65-.97-.34-1.89-.67-2.84-.86-.95-.18-1.9-.37-2.87-.39-1.94-.18-3.88-.03-5.92,.05Zm18.91,33.39c-1.19-.74-2.43-1.4-3.79-1.76-1.32-.46-2.72-.7-4.13-.87-1.41-.16-2.85-.21-4.31-.18,2.8-.91,5.89-.8,8.76,.02,1.42,.47,2.78,1.18,3.95,2.11,1.2,.91,2.09,2.15,2.78,3.43-1.06-1.02-2.04-2.05-3.26-2.76Zm.25-30.42c2.09-.46,4.23-.36,6.33-.1,1.04,.21,2.1,.41,3.1,.82,.99,.4,1.98,.92,2.71,1.71-.98-.42-1.96-.7-2.95-.92-.99-.23-2-.43-3.02-.55-2.02-.38-4.08-.53-6.17-.97Zm9.15,32.85c3.58-.91,7.45-.55,10.98,.66,1.75,.65,3.44,1.52,4.9,2.68,1.51,1.11,2.73,2.55,3.76,4.06-1.38-1.22-2.69-2.46-4.24-3.38-1.5-.98-3.09-1.8-4.79-2.35-1.66-.65-3.42-1.04-5.19-1.32-1.78-.27-3.59-.38-5.42-.35Zm57.25,83.05c.96,.96,1.78,2.08,2.35,3.31,.61,1.22,.87,2.57,.94,3.89-.51-1.23-.95-2.44-1.67-3.5-.67-1.07-1.43-2.09-2.37-2.93-.87-.91-1.9-1.67-2.96-2.39-1.07-.71-2.2-1.34-3.39-1.93,2.65,.35,5.12,1.7,7.1,3.55Zm.8,7.2c-.93-1.46-1.98-2.62-3.25-3.66-1.19-1.12-2.55-2.05-3.85-3.2,1.71,.37,3.2,1.3,4.55,2.39,1.25,1.16,2.47,2.68,2.54,4.47Zm-7.07,.38c-.95-1.03-1.83-2.12-2.5-3.34-.67-1.22-1.21-2.53-1.37-3.91,.59,1.24,1.29,2.39,2.07,3.46,.79,1.07,1.61,2.11,2.57,3.03,1.84,1.92,4.03,3.44,6.3,4.98-1.32-.39-2.59-.94-3.78-1.67-1.21-.69-2.26-1.62-3.29-2.56Z"/>
    <path class="cls-5" d="M175.61,100.05c.11-1.46-.5-2.82-1.47-3.84-2.24-2.35-9.84-5-15.26-3.91-1.71,.34-3.22,1.05-4.26,2.28-.36,.42-.77,.81-1.03,1.31-.14,.27-.31,.62-.5,1.01-2.43,5.1-8.3,19.86-1.09,22.44,9.09,3.25,18.87,6.37,23.46-18.24,.04-.21,.08-.4,.12-.62,.03-.14,0-.28,.02-.42Z"/>
    <path class="cls-5" d="M220.71,253.07c1.84-2.67,2.78-5.53,.94-7.79-.07-.09-.16-.19-.24-.28-3.88-4.64-11.94-11.38-15.89-7.94-8.68,7.55-16.93,21.27-16.93,21.27,0,0,3.25,11.15,15.69,11.08h0s.24-.15,.62-.42c1.29-.88,4.47-3.2,8.17-6.87,2.46-2.44,5.13-5.46,7.62-9.06Z"/>
    <path class="cls-12" d="M192.87,269.26c-1.16-.79-2.17-1.78-3.12-2.85-.94-1.07-1.79-2.23-2.56-3.48,.77,2.86,2.65,5.38,5.05,7.19,1.23,.87,2.61,1.56,4.07,1.91,1.45,.41,2.97,.41,4.42,.23h0c-1.45-.27-2.87-.48-4.18-1.02-1.32-.49-2.58-1.12-3.68-1.99Z"/>
    <path class="cls-12" d="M189.17,271.43c-.7-.62-1.37-1.27-1.98-2.02,.5,1.95,2.01,3.42,3.54,4.61,.82,.54,1.67,1.04,2.58,1.41,.9,.37,1.84,.65,2.81,.78-1.63-1.08-3.28-1.94-4.76-3.07-.78-.51-1.49-1.1-2.19-1.71Z"/>
    <path class="cls-12" d="M136.97,288.06c-.15-.01-.3-.03-.45-.04-1.47-.16-2.88-.46-4.12-1.19-.09-.05-.17-.12-.26-.18-1.45-.92-2.65-2.18-3.52-3.68-1.01-1.54-1.64-3.33-2.17-5.12-.53-1.81-.91-3.67-1.19-5.57-.16,1.92,.02,3.86,.39,5.77,.38,1.9,1.04,3.77,2.05,5.48,1.06,1.66,2.5,3.17,4.32,4.03,1.36,.65,2.83,.81,4.27,.73-.01,0-.02,0-.03,.01-1.63,.56-3.36,.74-5.04,.53-1.7-.13-3.34-.7-4.89-1.46-1.55-.78-3.01-1.78-4.37-2.94,2.09,2.9,5.44,5.03,9.15,5.47,1.84,.15,3.76-.05,5.44-.82,.88-.3,1.62-.85,2.41-1.29,.73-.54,1.4-1.15,2.06-1.75-.75,.42-1.48,.85-2.23,1.23-.59,.3-1.19,.56-1.81,.78Z"/>
    <path class="cls-12" d="M168.37,289.9c.95,.84,1.7,1.86,2.37,2.93,.72,1.06,1.16,2.27,1.67,3.5-.07-1.32-.33-2.67-.94-3.89-.57-1.23-1.4-2.35-2.35-3.31-1.98-1.85-4.45-3.2-7.1-3.55,1.19,.58,2.32,1.21,3.39,1.93,1.06,.72,2.09,1.48,2.96,2.39Z"/>
    <path class="cls-12" d="M162.82,289.46c1.29,1.16,2.65,2.08,3.85,3.2,1.27,1.05,2.33,2.21,3.25,3.66-.08-1.8-1.29-3.31-2.54-4.47-1.35-1.09-2.84-2.02-4.55-2.39Z"/>
    <path class="cls-12" d="M163.62,295.95c-.96-.91-1.78-1.96-2.57-3.03-.78-1.08-1.48-2.22-2.07-3.46,.16,1.38,.7,2.69,1.37,3.91,.67,1.22,1.56,2.32,2.5,3.34,1.03,.94,2.08,1.87,3.29,2.56,1.19,.72,2.46,1.28,3.78,1.67-2.27-1.54-4.46-3.06-6.3-4.98Z"/>
    <path class="cls-12" d="M154.3,126.37c1.62,.42,3.3,.7,4.97,.58,1.67-.05,3.3-.45,4.83-1.02-1.64,.13-3.24,.31-4.83,.19-1.59-.05-3.16-.31-4.67-.78-1.53-.38-2.98-1.05-4.38-1.82-1.4-.77-2.72-1.7-3.96-2.77,1.87,2.73,4.83,4.65,8.03,5.62Z"/>
    <path class="cls-12" d="M147.68,126.55c1.26,1.28,2.84,2.1,4.46,2.79,1.65,.57,3.47,1.03,5.24,.61-1.71-.48-3.28-.96-4.85-1.61-1.61-.56-3.14-1.28-4.85-1.79Z"/>
    <path class="cls-12" d="M144.27,149.37c1.4,.52,2.63,1.35,3.75,2.31,1.16,.95,1.95,2.25,2.79,3.56-.42-1.48-1.08-2.99-2.21-4.14-1.09-1.18-2.46-2.09-3.93-2.72-3-1.12-6.27-1.36-9.3-.58,1.55,.03,3.08,.15,4.57,.39,1.49,.25,2.96,.59,4.32,1.18Z"/>
    <path class="cls-12" d="M141.88,151.79c-1.81-.54-3.71-.83-5.57-.45,1.8,.5,3.55,.84,5.22,1.46,1.7,.53,3.22,1.33,4.73,2.44-.42-.85-1.09-1.56-1.85-2.14-.77-.57-1.65-.96-2.53-1.32Z"/>
    <path class="cls-12" d="M140.41,160.65c2.67,1.31,5.6,2.31,8.59,2.31-1.42-.47-2.81-.88-4.15-1.45-1.34-.56-2.68-1.11-3.95-1.82-2.61-1.28-5.05-2.86-7.56-4.45,1.94,2.28,4.45,3.98,7.07,5.41Z"/>
    <path class="cls-12" d="M117.03,178.33c-1.18,1.8-2.19,3.69-3.22,5.58-1.92,3.84-3.72,7.73-5.03,11.83,2.12-3.74,3.96-7.58,5.98-11.34,.94-1.91,1.96-3.78,2.97-5.65,1.02-1.87,2.06-3.72,3.22-5.53,0,0-.01,.02-.02,.03-.06,.06-.1,.13-.16,.19-1.43,1.49-2.62,3.18-3.75,4.9Z"/>
    <path class="cls-12" d="M93.16,179.02c-1.97,3.32-3.54,6.87-4.4,10.62,.83-1.73,1.66-3.44,2.53-5.12,.87-1.68,1.75-3.35,2.78-4.93,.95-1.62,2.04-3.16,3.28-4.56,1.23-1.4,2.61-2.69,4.32-3.58-1.88,.47-3.52,1.67-4.92,3.01-1.42,1.35-2.55,2.94-3.59,4.56Z"/>
    <path class="cls-12" d="M79.17,169.98c-1.05,.6-2.05,1.28-2.98,2.05-1.27,1.07-2.4,2.29-3.45,3.58-.98,1.34-1.93,2.71-2.64,4.21-.75,1.48-1.3,3.05-1.69,4.65,.8-1.44,1.53-2.89,2.41-4.25,.84-1.38,1.75-2.71,2.77-3.95,.95-1.3,2.05-2.47,3.17-3.64,1.05-1.08,2.17-2.1,3.34-3.08,.08-.07,.15-.15,.24-.22-.41,.18-.78,.43-1.17,.65Z"/>
    <path class="cls-12" d="M92.37,170.59c.96,.19,1.87,.52,2.84,.86-.73-.71-1.63-1.28-2.6-1.65-.97-.37-2.01-.56-3.04-.67-2.06-.07-4.16,.18-6,1.13,2.04-.08,3.98-.24,5.92-.05,.97,.02,1.92,.2,2.87,.39Z"/>
    <path class="cls-12" d="M111.92,174.74c1,.23,1.97,.5,2.95,.92-.73-.8-1.72-1.31-2.71-1.71-1-.41-2.05-.62-3.1-.82-2.11-.27-4.24-.36-6.33,.1,2.09,.43,4.14,.58,6.17,.97,1.02,.12,2.02,.33,3.02,.55Z"/>
    <path class="cls-12" d="M73.02,169.32c.77,0,1.53,.02,2.3,.31-.53-.67-1.42-.97-2.22-1.13-.82-.16-1.66-.15-2.48-.14-1.63,.18-3.24,.47-4.71,1.27,1.65,.08,3.21-.14,4.78-.19,.78-.1,1.55-.1,2.32-.11Z"/>
    <path class="cls-12" d="M58.29,193.23c-1.28-.73-2.71-1.08-4.12-1.38-2.85-.43-5.76-.37-8.52,.39,1.42,.04,2.82,.09,4.22,.19,1.39,.1,2.77,.2,4.12,.48,2.72,.41,5.34,1.32,7.4,3.29-.67-1.28-1.82-2.27-3.1-2.98Z"/>
    <path class="cls-12" d="M80.38,197.03c-1.43-.7-2.98-1.04-4.51-1.34-3.1-.41-6.27-.36-9.27,.45,1.55,.02,3.08,.06,4.6,.15,1.52,.1,3.03,.18,4.51,.47,2.99,.42,5.86,1.32,8.36,3.16-.94-1.25-2.26-2.19-3.68-2.88Z"/>
    <path class="cls-12" d="M102.97,202.97c-1.17-.93-2.52-1.65-3.95-2.11-2.87-.83-5.96-.94-8.76-.02,1.46-.03,2.89,.02,4.31,.18,1.41,.17,2.8,.41,4.13,.87,1.36,.36,2.6,1.02,3.79,1.76,1.22,.71,2.21,1.74,3.26,2.76-.69-1.28-1.58-2.52-2.78-3.43Z"/>
    <path class="cls-12" d="M127.28,210.09c1.54,.92,2.86,2.16,4.24,3.38-1.03-1.51-2.25-2.95-3.76-4.06-1.46-1.16-3.15-2.03-4.9-2.68-3.53-1.21-7.39-1.57-10.98-.66,1.84-.03,3.65,.09,5.42,.35,1.78,.28,3.53,.67,5.19,1.32,1.7,.55,3.29,1.37,4.79,2.35Z"/>
    <path class="cls-4" d="M254.75,10.63c.1-1.9-.57-3.96-1.93-5.37-1.33-1.44-3.28-2.28-5.23-2.25l-5.58,.04-22.31,.23v.11l22.31,.23c3.61,.23,7.84-.81,10.27,2.14,1.2,1.31,1.76,3.06,1.65,4.87l-.04,5.58c-.09,7.44-.12,14.87-.09,22.31,.18,7.44,.19,14.87,.53,22.31h.11c.33-7.44,.32-14.87,.49-22.31,.01-7.44-.03-14.87-.13-22.31l-.05-5.58Z"/>
    <path class="cls-4" d="M252.67,257.82c.34-7.9,.33-15.81,.51-23.72,.02-7.9-.02-15.81-.11-23.71l-.4-47.43h-.11l-.4,47.43c-.09,7.9-.13,15.81-.11,23.71,.18,7.91,.18,15.81,.51,23.72h.11Z"/>
    <path class="cls-4" d="M117.57,12.19l-.67,39.92c-.14,6.65-.22,13.31-.25,19.96,.06,6.65,.1,13.31,.38,19.96h.11c.37-6.65,.5-13.3,.65-19.96,.06-6.65,.07-13.31,.02-19.96l-.13-39.92h-.11Z"/>
  </g>
  <g>
    <polygon class="cls-8" points="1968.34 64.33 1734.85 276.37 1636.25 168.6 1968.34 64.33"/>
    <polygon class="cls-6" points="1636.25 168.6 1588.58 258.55 1580.35 123.92 1968.34 64.33 1636.25 168.6"/>
    <polygon class="cls-18" points="1686.29 223.29 1588.58 258.55 1636.25 168.6 1686.29 223.29"/>
    <polygon class="cls-8" points="1580.35 123.92 1501.27 52.23 1968.34 64.33 1580.35 123.92"/>
  </g>
  <g>
    <path class="cls-14" d="M270.54,102.73s4.05-3.63,11.66-9.43"/>
    <path class="cls-13" d="M324.4,65.32c65.36-37.81,183.52-83.24,316.97-26.85,119.57,50.53,127.78,140.8,114.3,206.53-18.17,88.57-124.17,126.7-193.96,69.22-.87-.72-1.75-1.45-2.62-2.2-87.43-74.57-15.43-253.65,136.29-166.68,142.92,81.93,577.95,141.04,808.47,122.01"/>
    <path class="cls-14" d="M1529.07,264.85c5.09-.59,10.05-1.23,14.88-1.92"/>
  </g>
</svg>