<?xml version="1.0" encoding="UTF-8"?>
<svg id="Capa_1" data-name="Capa 1" xmlns="http://www.w3.org/2000/svg" viewBox="0 0 7.21 4.15">
  <defs>
    <style>
      .cls-1 {
        fill: #fff;
      }
    </style>
  </defs>
  <path class="cls-1" d="M1.16,2.78s-.03-.08-.06-.08-.06,.03-.06,.08,.03,.08,.06,.08,.06-.03,.06-.08Zm-.06-.04s.03,.02,.03,.04-.01,.04-.03,.04-.03-.02-.03-.04,.01-.04,.03-.04Z"/>
  <path class="cls-1" d="M1.48,.61s0,0,0,0c0,0,0,.01,.02,.01,0,0,.02,0,.02-.02h0s0,0,0,0h0s0-.04,.02-.06c0-.02,.02-.05,.02-.08,0,0,0-.02,0-.03,0,0,0-.01-.01-.02-.01-.01-.02-.02-.04-.03-.01,0-.03,0-.03-.01,0,0-.01,0-.01-.01,0,0,0,0,0,0,0,0-.01-.01-.02-.01,0,0-.01,.01-.01,.02h0s0,0,0,.01c0,0,0,.01-.01,.02-.01,.02-.03,.04-.02,.08,0,.04,.04,.06,.06,.08,.02,.01,.04,.03,.04,.04Zm-.05-.18s0,0,0-.01c0,0,0,0,0,0,.01,0,.02,.01,.03,.02,0,0,.01,0,.02,.02,0,0,0,0,0,.01,0,0,0,0,0,.01,0,.02,0,.04-.01,.06,0,0,0,.02,0,.02,0,0-.01,0-.02-.01-.02-.02-.04-.03-.05-.06,0-.02,0-.04,.02-.05Z"/>
  <path class="cls-1" d="M1.56,.28s0,0,0,0c0-.01,.03-.03,.06-.05,.04-.02,.07-.05,.08-.09,.01-.04,0-.07-.01-.08,0-.01,0-.02,0-.02,0,0,0,0,0-.01h0s0-.02,0-.02c0,0-.02,0-.02,0,0,0,0,0,0,0h0s0,0-.02,0c0,0-.03,0-.04,.01-.04,.01-.06,.05-.06,.08,0,.03,0,.06,0,.09,0,.03,0,.05,0,.07h0s0,.02,0,.02c0,0,.02,0,.02,0Zm.02-.09s0-.05,0-.07c0-.02,.01-.03,.03-.04,0,0,.02,0,.03-.01,0,0,0,0,0,0,0,0,0,0,0,.01,0,.02,.02,.03,.01,.06,0,.02-.04,.05-.07,.07,0,0-.02,.01-.02,.02,0,0,0-.01,0-.02Z"/>
  <path class="cls-1" d="M1.44,1.11s.02-.04,.02-.06c0-.04,0-.08,0-.12,0-.04,0-.08-.01-.11,0-.04,0-.07,.02-.1h0s0,0,0-.01c0,0,0,0-.01,0-.02,.01-.03,.03-.04,.05,0,.02,0,.04-.01,.06,0,.04,0,.08,0,.12,0,.04,0,.08,0,.11,0,.03-.01,.06-.04,.08h0s0,.01,0,.02c0,0,.01,.01,.02,.01,.02,0,.04-.03,.05-.05Z"/>
  <path class="cls-1" d="M1.29,1.62s.02,0,.02,0c0,0,0,0,0,0,0,0,0,0,0,0,0,0,.01-.01,.02-.02,.01,0,.03-.01,.05-.02,.02,0,.04-.02,.05-.04,0,0,.01-.02,.02-.03,0,0,0-.01,0-.02,0,0,0-.01,0-.02,0-.05,0-.09-.02-.12-.01-.04-.02-.07-.02-.1h0s0-.02-.01-.02c0,0-.02,0-.02,0,0,0,0,0,0,0-.02,.02-.05,.04-.08,.06-.03,.02-.07,.04-.09,.09,0,.01,0,.02-.01,.03,0,.01,0,.02,0,.03,0,.02,0,.05,.02,.07,.01,.02,.02,.03,.03,.05,0,.01,.01,.02,0,.03,0,0,0,0,0,0,0,0,0,.02,.01,.02Zm0-.19s0-.01,0-.02c.01-.02,.04-.05,.06-.07,.01,0,.02-.02,.03-.03,0,.01,0,.03,0,.04,0,.04,.02,.07,.01,.1h0s0,.02,0,.02c0,0,0,.01-.01,.02,0,.01-.02,.02-.03,.03-.01,0-.03,.01-.05,.02,0,0,0,0,0,0,0-.02-.02-.04-.02-.05,0-.01,0-.03,0-.04,0,0,0-.01,0-.02Z"/>
  <path class="cls-1" d="M.56,.79s.04,.07,.06,.09c.02,.02,.05,.04,.07,.06s.05,.03,.08,.05c.05,.03,.1,.06,.15,.08s.1,.05,.15,.08,.09,.06,.12,.1h0s0,0,0,0c0,0,0,0,0,0s0,0,0,0c0,0,.01,0,.02,0,0,0,.01-.01,.01-.02h0s0,0,0,0h0s-.02-.09-.02-.14c0-.05,.01-.09,.02-.14,.01-.05,.03-.09,.04-.14,.02-.05,.03-.09,.05-.14,0-.03,.01-.05,.01-.08h0s0-.02,0-.02c0,0,0-.02,0-.03,0-.02-.02-.04-.03-.05,0,0-.02-.01-.02-.02,0,0-.01,0-.02,0-.02,0-.03,0-.05,0-.02,0-.03,0-.05,.01s-.03,.02-.04,.03c-.05,.04-.07,.09-.08,.15,0,.02,0,.04,0,.07,0,0,0,0,0,0-.02-.02-.04-.04-.07-.06-.05-.04-.11-.06-.18-.07-.03,0-.07,0-.11,0-.04,.01-.08,.04-.1,.08,0,0,0,.02-.01,.03,0,.01,0,.02,0,.03,0,.01,0,.02,0,.03,0,.01,0,.02,0,.03Zm.1-.05s0,0,0-.01c0,0,0,0,0-.01,0-.01,.01-.02,.03-.02,.02,0,.04,0,.06,0,.05,0,.1,.02,.15,.04s.1,.05,.13,.09h0s.01,.01,.02,0c0,0,.02-.01,.01-.02h0s0-.05,0-.07,0-.05,.02-.07c0-.02,.02-.04,.03-.06,.01-.02,.03-.04,.04-.05,0,0,.02-.01,.02-.01,0,0,.02,0,.02,0,0,0,.02,0,.03,0,0,0,0,0,.01,0,0,0,0,0,0,0,0,0,0,0,0,.01,0,0,0,.02,0,.03,0,.02,0,.04-.01,.07-.02,.09-.06,.19-.08,.29-.01,.05-.02,.1-.01,.16,0,.01,0,.03,0,.04-.02-.02-.03-.03-.05-.04-.05-.04-.09-.07-.14-.1-.05-.03-.1-.06-.15-.09-.05-.03-.09-.06-.13-.1-.02-.02-.03-.04-.03-.05,0,0,0,0,0-.01,0,0,0,0,0-.01Z"/>
  <path class="cls-1" d="M1.24,2.63c.05,0,.09-.05,.09-.12s-.04-.12-.09-.12-.09,.05-.09,.12,.04,.12,.09,.12Zm0-.2s.06,.04,.06,.08-.03,.08-.06,.08-.06-.04-.06-.08,.03-.08,.06-.08Z"/>
  <path class="cls-1" d="M2.6,3.14s-.03-.02-.04-.04c-.01-.02-.03-.04-.03-.06-.02-.05-.03-.11-.04-.17s-.02-.12-.02-.18c0-.06,0-.13-.01-.19,0-.06,0-.12,0-.18,.01,0,.03,0,.04-.02,.02,0,.03-.03,.03-.05,0-.03-.03-.04-.05-.04h0s-.01,0-.02,0c0-.16,0-.33,0-.49,0-.26,0-.52-.03-.79-.01-.13-.03-.27-.07-.4-.02-.07-.04-.14-.07-.2,0-.02-.02-.03-.03-.05-.01-.02-.02-.03-.04-.05-.03-.03-.06-.06-.11-.08-.01,0-.02,0-.03-.01-.01,0-.02,0-.04,0h-.02s-.01,0-.02,0c-.01,0-.02,0-.04,0-.05,0-.1,.02-.14,.05-.04,.03-.07,.06-.09,.1s-.04,.07-.05,.1c-.02,.07-.04,.14-.05,.2-.01,.07-.02,.13-.03,.2-.03,.26-.03,.53-.05,.79,0,.17-.02,.35-.04,.52-.04,.01-.09,.03-.12,.05-.03,.02-.05,.03-.07,.05-.01,0-.02,.02-.03,.03,0,0-.01,.01-.02,.02,0,0,0,.01-.02,.02-.01,.02-.02,.04-.01,.06,0,.04,.04,.06,.08,.05h.04s0-.01,.01-.01h.01s.03-.02,.03-.02c.02-.01,.04-.02,.06-.03,0,0,0,0,.01,0,0,.02,0,.03,0,.05-.02,.13-.06,.25-.11,.36-.05,.11-.13,.21-.24,.24h0s-.04,.03-.03,.06c0,.02,.03,.04,.06,.03,.07-.02,.14-.06,.19-.11,.05-.05,.09-.11,.12-.17,.06-.12,.1-.25,.13-.38,0-.03,.01-.07,.02-.1,.04,0,.08-.01,.11,0,.04,0,.09,.01,.14,.03,.1,.02,.2,.06,.3,.07,.01,0,.03,0,.04,0,0,.06,0,.12,.01,.18,.01,.13,.03,.27,.07,.4,0,.03,.02,.07,.03,.1,0,.02,.01,.03,.02,.05,0,.02,.02,.03,.03,.05,.02,.03,.04,.07,.07,.1,.03,.03,.07,.06,.12,.07,.03,0,.07,0,.08-.04,.02-.04,0-.08-.03-.1h0Zm-.41-.95c-.09-.02-.18-.06-.28-.1-.05-.02-.1-.03-.16-.04-.03,0-.07,0-.1,0,.02-.16,.04-.33,.05-.49,.02-.26,.04-.52,.07-.77,0-.06,.02-.13,.03-.19,.01-.06,.03-.12,.05-.17,.01-.03,.02-.05,.04-.07,.01-.02,.03-.04,.04-.05s.03-.01,.04-.01c.02,0,.03,0,.05,.01,.01,0,.03,.02,.04,.04,0,0,.01,.02,.02,.03,0,.01,.01,.02,.02,.04,.02,.05,.04,.11,.05,.17,.02,.12,.03,.25,.04,.37,.01,.25,0,.51,.01,.77,0,.16,0,.31,.01,.47,0,0,0,0,0,0Z"/>
  <path class="cls-1" d="M.28,1.33s.07,0,.11,0c.08,.02,.16,.06,.23,.1,.08,.04,.15,.09,.23,.14s.15,.1,.23,.14c.04,.02,.08,.04,.13,.05,.04,.01,.09,.03,.14,.03h0s.04-.02,.03-.04-.02-.04-.04-.03c-.04,0-.08,0-.12,0-.04,0-.08-.03-.12-.04-.08-.04-.15-.08-.23-.13-.07-.05-.14-.1-.22-.15-.04-.02-.08-.05-.12-.07s-.08-.04-.13-.06c-.05-.01-.1-.03-.15-.02-.05,0-.11,.03-.15,.06-.02,.02-.04,.03-.06,.06-.02,.02-.03,.05-.04,.07-.02,.05-.02,.11,0,.17,.03,.11,.12,.19,.21,.22,.05,.02,.1,.02,.15,.02,.05,0,.1-.02,.14-.04,0,0,.01-.01,0-.02,0-.01-.01-.02-.02-.02-.09,0-.17,0-.23-.04-.06-.03-.11-.09-.13-.16-.02-.06,0-.13,.05-.18,.02-.02,.05-.04,.09-.05Z"/>
  <path class="cls-1" d="M1.25,2.05s.08-.1,.12-.15c0,0,0,0,0,0,0,0,0-.02,0-.02,0,0-.02,0-.02,0-.03,.01-.05,.02-.08,.03-.03,0-.06,.01-.08,.01-.06,0-.12-.02-.18-.02-.02,0-.03,0-.05,0-.02,0-.03,0-.05,0,0,0-.02,0-.03,0,0,0-.02,0-.03,0,0,0-.02,0-.03,0,0,0-.02,0-.03,.01-.04,.02-.07,.07-.07,.11,0,.04,0,.08,.02,.12,.02,.03,.04,.06,.08,.08,.03,.02,.07,.03,.11,.03,.02,0,.04,0,.05,0,.02,0,.03-.01,.05-.02,.03-.01,.06-.03,.08-.05,.05-.04,.1-.08,.15-.12Zm-.25,.13s-.06,.02-.08,.01c-.05,0-.09-.05-.11-.09,0-.02-.01-.05,0-.07,0,0,0-.02,0-.03,0,0,.01-.01,.02-.02,.02-.01,.04-.02,.07-.02,.01,0,.03,0,.04,0,.02,0,.03,0,.05,0h.09s.07,.01,.1,0c.03,0,.07-.01,.1-.03,0,0,0,0,.01,0-.02,.03-.04,.05-.06,.08-.04,.04-.09,.08-.14,.12-.03,.02-.05,.03-.08,.04Z"/>
  <path class="cls-1" d="M7.18,2.05s-.05,0-.06,.03h0c-.03,.1-.06,.2-.11,.29-.03,.04-.05,.09-.09,.13-.03,.04-.06,.08-.1,.12-.05,.05-.11,.1-.17,.15,0-.06,0-.11,0-.17,0-.11,0-.22,0-.33,0-.22-.02-.44-.04-.66,0-.05-.04-.08-.09-.08-.05,0-.09,.04-.09,.09h0c0,.1-.02,.19-.04,.28-.02,.1-.04,.19-.06,.28-.01,.05-.03,.09-.04,.14s-.04,.09-.06,.13c-.02,.04-.05,.08-.07,.1s-.06,.04-.08,.04c0,0-.01,0-.02,0,0,0-.01,0-.02,0,0,0-.02-.01-.02-.02,0,0-.01-.02-.02-.04,0-.01,0-.03-.01-.05,0-.04-.01-.08-.01-.12,0-.04,0-.09,0-.13,0-.18,.01-.37,.03-.56h0s-.02-.07-.05-.08c-.04-.02-.09,0-.11,.04-.04,.1-.07,.19-.09,.29,0,.05-.01,.1-.02,.15-.14-.01-.29-.02-.43,.02,0-.1,0-.2-.02-.3,0-.03-.02-.05-.03-.08-.01-.03-.03-.05-.04-.08-.02-.03-.04-.05-.07-.07-.03-.02-.06-.04-.09-.05-.03-.01-.07-.02-.1-.02-.03,0-.07,0-.1,.02-.06,.02-.11,.06-.15,.1-.08,.08-.12,.17-.16,.25-.04,.09-.06,.18-.08,.27,0,.02,0,.04-.01,.06,0-.11-.01-.23-.01-.34,0-.09,0-.17,0-.26,.01,0,.03-.01,.04-.02,.03-.02,.06-.04,.1-.06,.06-.04,.12-.09,.17-.15,.03-.03,.05-.06,.07-.09,.02-.03,.04-.07,.06-.11,.03-.07,.05-.15,.06-.24,0-.04,0-.08,0-.13s-.02-.09-.04-.14c-.01-.02-.03-.05-.05-.07-.02-.02-.06-.04-.09-.05-.03,0-.07-.01-.09,0-.03,0-.05,0-.08,.02-.05,.02-.1,.05-.13,.08-.03,.03-.06,.07-.08,.11-.04,.07-.08,.15-.1,.22-.05,.15-.07,.3-.08,.45-.01,.15-.02,.3-.01,.45,0,.07,.02,.14,.02,.21-.14-.01-.28-.02-.41,.02,0-.1,0-.2-.02-.3,0-.03-.02-.05-.03-.08-.01-.03-.02-.05-.04-.08-.02-.03-.04-.05-.07-.07-.03-.02-.06-.04-.09-.05-.03-.01-.07-.02-.1-.02-.03,0-.07,0-.1,.02-.06,.02-.11,.06-.15,.1-.08,.08-.12,.17-.16,.25-.04,.09-.06,.18-.08,.27,0,.02,0,.04-.01,.06,0-.11-.01-.23-.01-.34,0-.09,0-.17,0-.26,.01,0,.03-.01,.04-.02,.03-.02,.06-.04,.1-.06,.06-.04,.12-.09,.17-.15,.03-.03,.05-.06,.07-.09,.02-.03,.04-.07,.06-.11,.03-.07,.05-.15,.06-.24,0-.04,0-.08,0-.13,0-.04-.02-.09-.04-.14-.01-.02-.03-.05-.05-.07-.02-.02-.06-.04-.09-.05-.03,0-.07-.01-.09,0-.03,0-.05,0-.08,.02-.05,.02-.1,.05-.13,.08-.03,.03-.06,.07-.08,.11-.04,.07-.08,.15-.1,.22-.05,.15-.07,.3-.08,.45-.01,.15-.02,.3-.01,.45s.02,.3,.05,.44c0,.04,.02,.07,.02,.11,0,.04,.02,.07,.03,.11,.01,.04,.03,.07,.04,.11,.02,.04,.04,.07,.07,.11,.02,.02,.06,.03,.09,.02,.03-.01,.04-.04,.04-.06,0,0,0-.01,0-.02-.02-.17,0-.35,.05-.52,.02-.08,.06-.16,.09-.24,.04-.07,.09-.14,.14-.19,.03-.02,.06-.04,.08-.04,.01,0,.02,0,.04,0,.01,0,.02,0,.03,.01,.02,.01,.03,.03,.04,.05,.01,.02,.02,.06,.03,.09,.01,.07,.01,.15,0,.23,0,.04,0,.08-.02,.12-.1,.06-.2,.13-.28,.22-.03,.04-.06,.07-.09,.11-.03,.04-.05,.08-.08,.13-.01,.03-.02,.05-.03,.09,0,0,0,.02,0,.04,0,0,0,.02,0,.02,0,0,0,.02,.01,.04s.02,.03,.04,.04c0,0,.02,0,.03,.01h0s0,0,0,0h0s.02,0,.02,0c.03,0,.06,0,.09,0,.03,0,.06-.01,.09-.03,.06-.02,.1-.06,.15-.1,.04-.04,.07-.08,.1-.12,.06-.09,.1-.18,.13-.27,.02-.05,.03-.11,.04-.16,.14-.05,.29-.07,.44-.07,0,.05,0,.09,.02,.14,0,.04,.02,.07,.02,.11,0,.04,.02,.07,.03,.11,.01,.04,.03,.07,.04,.11,.02,.04,.04,.07,.07,.11,.02,.02,.06,.03,.09,.02,.03-.01,.04-.04,.04-.06,0,0,0-.01,0-.02-.02-.17,0-.35,.05-.52,.02-.08,.06-.16,.09-.24,.04-.07,.09-.14,.14-.19,.03-.02,.06-.04,.08-.04,.01,0,.02,0,.04,0,.01,0,.02,0,.03,.01,.01,.01,.03,.03,.04,.05,.01,.02,.02,.06,.03,.09,.01,.07,.01,.15,0,.23,0,.04,0,.08-.02,.12-.1,.06-.2,.13-.28,.22-.03,.04-.06,.07-.09,.11-.03,.04-.05,.08-.08,.13-.01,.03-.02,.05-.03,.09,0,0,0,.02,0,.04,0,0,0,.02,0,.02,0,0,0,.02,.01,.04s.02,.03,.04,.04c0,0,.02,0,.03,.01h0s0,0,0,0h0s.02,0,.02,0c.03,0,.06,0,.09,0,.03,0,.06-.01,.09-.03,.06-.02,.1-.06,.14-.1,.04-.04,.08-.08,.1-.12,.06-.09,.1-.18,.13-.27,.02-.05,.03-.11,.04-.16,.14-.05,.29-.07,.44-.07,0,.02,0,.04,0,.07,0,.11,0,.21,.06,.33,.01,.03,.03,.06,.05,.08,.02,.03,.05,.05,.08,.08,.03,.02,.07,.04,.11,.04,.02,0,.04,0,.05,0,.02,0,.04,0,.05,0,.04,0,.07-.02,.09-.04,.03-.02,.05-.04,.07-.06,.04-.05,.06-.09,.08-.14,.03-.08,.06-.16,.08-.23,0,.11,0,.21-.01,.32,0,.11-.01,.21-.03,.32,0,.02,0,.03,0,.05-.02,.01-.04,.03-.07,.04-.09,.06-.19,.11-.28,.18-.05,.03-.09,.06-.14,.11-.05,.04-.09,.09-.12,.14-.07,.11-.11,.24-.1,.38,0,.07,.03,.14,.09,.21,.03,.03,.06,.06,.1,.08,.04,.02,.08,.03,.12,.04,.02,0,.04,0,.06,0,.02,0,.04,0,.06-.01,.04,0,.07-.03,.11-.05,.07-.04,.11-.09,.15-.14,.04-.05,.07-.11,.09-.16,.03-.06,.05-.11,.06-.17,.06-.21,.09-.42,.12-.63,.1-.08,.19-.17,.28-.27,.04-.04,.07-.09,.1-.14,.03-.05,.06-.1,.08-.15,.05-.1,.08-.21,.1-.32,0-.02-.01-.05-.04-.05Zm-2.73-.61c.01-.14,.03-.27,.06-.4,.02-.06,.04-.12,.06-.18s.06-.09,.09-.1c0,0,.02,0,.02,0,.01,0,.01,0,.02,0,0,0,0,0,0,0s0,0,.01,.01c.01,.01,.02,.04,.02,.07,0,.03,0,.06,0,.09,0,.06-.01,.12-.03,.19-.02,.06-.05,.11-.09,.17-.04,.05-.08,.1-.14,.15-.02,.02-.04,.03-.05,.05v-.03Zm-1.5,0c.01-.14,.03-.27,.06-.4,.02-.06,.04-.12,.06-.18,.03-.05,.06-.09,.09-.1,0,0,.02,0,.02,0,.01,0,.01,0,.02,0,0,0,0,0,0,0s0,0,.01,.01c.01,.01,.02,.04,.02,.07,0,.03,0,.06,0,.09,0,.06-.01,.12-.03,.19-.02,.06-.05,.11-.09,.17-.04,.05-.08,.1-.14,.15-.02,.02-.04,.03-.05,.05v-.03Zm.46,1.1c-.04,.07-.08,.12-.14,.15,0-.02,.02-.04,.03-.06,.02-.03,.04-.07,.07-.1,.03-.03,.05-.06,.08-.09-.01,.03-.03,.07-.05,.1Zm1.51,0c-.04,.07-.08,.12-.14,.15,0-.02,.02-.04,.03-.06,.02-.03,.04-.07,.07-.1,.03-.03,.05-.06,.08-.09-.01,.03-.03,.07-.05,.1Zm1.45,.69c-.02,.1-.04,.21-.07,.3-.03,.1-.07,.19-.12,.26-.02,.04-.05,.06-.08,.08-.01,0-.03,.02-.04,.02,0,0-.01,0-.02,0,0,0-.01,0-.02,0-.01,0-.02,0-.03,0s-.02-.01-.03-.02c-.02-.02-.04-.05-.04-.09-.01-.08,0-.16,.05-.24,.02-.04,.05-.08,.08-.11,.03-.03,.07-.07,.11-.1,.07-.05,.14-.1,.21-.15,0,.01,0,.03,0,.04Z"/>
</svg>