<?xml version="1.0" encoding="UTF-8"?>
<svg id="Layer_1" data-name="Layer 1" xmlns="http://www.w3.org/2000/svg" viewBox="0 0 399.68 77.61">
  <defs>
    <style>
      .cls-1 {
        fill: #e5bbef;
      }
    </style>
  </defs>
  <path class="cls-1" d="M386.51,2.7c-9.44-4.8-21.37-3.15-28.78,4.57-8.09,8.43-8.57,22.37,1.15,29.79,10.04,7.66,24.34,.31,28.58-10.32,3.61-9.05-14.77-10.05-11.46,0,2.29,6.93-4.96,10.55-11,8.36-7.21-2.62-10.37-10.95-8.07-17.94,4.33-13.16,20.67-16.04,31.55-9.44,10.8,6.56,11.1,22.2,5.75,32.34-5.77,10.92-18.51,16.33-30.29,17.2-25.71,1.89-47.08-16.25-67.19-29.48-17.01-11.19-38.11-21.82-59.04-16.65-18.54,4.58-38.37,22.23-37.86,42.58,.03,1.32,1.7,1.38,2.16,.29,5.48-13,12-24.69,24.28-32.4,12.74-8,27.77-9.63,42.11-5.3,29.7,8.96,50.99,35.89,81.95,41.7,21.07,3.96,47.59-5.74,49.26-30.12,.68-9.87-4-20.55-13.11-25.18h.01Z"/>
  <path class="cls-1" d="M284.19,53.15c-1.56-14.12-15.34-23.8-28.57-25.76-15.89-2.36-31.88,5.32-40.56,18.65-.15,.23,.21,.44,.37,.22,12.18-17.54,42.8-26.28,58.32-7.62,7.42,8.93,7.6,26.98-5.56,30.88-6.12,1.82-10.66-1.02-14.08-5.88-2.07-2.94-4.47-5.79-2.44-10.01,4.42-9.19,18.53,.2,9.77,6.25-.34,.23-.14,.83,.29,.7,10.17-3.15,1.83-16.78-7.43-12.6-5.16,2.33-8.07,9.34-8.51,14.69-.55,6.66,6.6,12.69,12.44,14.28,14.23,3.87,27.47-10,25.95-23.79h0Z"/>
  <path class="cls-1" d="M13.17,2.7C22.61-2.1,34.54-.45,41.95,7.27c8.09,8.43,8.57,22.37-1.15,29.79-10.04,7.66-24.34,.31-28.58-10.32-3.61-9.05,14.77-10.05,11.46,0-2.29,6.93,4.96,10.55,11,8.36,7.21-2.62,10.37-10.95,8.07-17.94C38.41,4.01,22.07,1.12,11.19,7.72,.39,14.28,.09,29.92,5.44,40.06c5.77,10.92,18.51,16.33,30.29,17.2,25.71,1.89,47.08-16.25,67.19-29.48,17.01-11.19,38.11-21.82,59.04-16.65,18.54,4.58,38.37,22.23,37.86,42.58-.03,1.32-1.7,1.38-2.16,.29-5.48-13-12-24.69-24.28-32.4-12.74-8-27.77-9.63-42.11-5.3-29.69,8.96-50.99,35.89-81.95,41.7C28.26,61.95,1.74,52.26,.06,27.88-.61,18.01,4.06,7.33,13.17,2.7Z"/>
  <path class="cls-1" d="M115.48,53.15c1.56-14.12,15.34-23.8,28.57-25.76,15.89-2.36,31.88,5.32,40.56,18.65,.15,.23-.21,.44-.37,.22-12.18-17.54-42.81-26.28-58.32-7.62-7.42,8.93-7.6,26.98,5.56,30.88,6.12,1.82,10.66-1.02,14.08-5.88,2.07-2.94,4.47-5.79,2.44-10.01-4.42-9.19-18.53,.2-9.77,6.25,.34,.23,.14,.83-.29,.7-10.17-3.15-1.83-16.78,7.43-12.6,5.16,2.33,8.07,9.34,8.51,14.69,.55,6.66-6.6,12.69-12.44,14.28-14.23,3.87-27.47-10-25.95-23.79h-.01Z"/>
</svg>