<?xml version="1.0" encoding="UTF-8"?>
<svg id="Layer_1" data-name="Layer 1" xmlns="http://www.w3.org/2000/svg" viewBox="0 0 422.22 53.27">
  <defs>
    <style>
      .cls-1 {
        fill: #e5bbef;
      }
    </style>
  </defs>
  <path class="cls-1" d="M415.45,2.19c-4.17-.23-6.87,3.01-6.22,6.97,.09,.58,.41,1.06,.83,1.45-.12,.42-.24,.85-.39,1.26-.36,1.03-.83,1.97-1.35,2.92-1.28,2.33-3.03,4.36-5.03,6.11-4.7,4.11-10.46,6.18-16.44,7.59-13.58,3.2-28.14,.1-41.21-4.12-14.55-4.69-32.9-13.2-49.82-13.39-2.11-2.69-4.87-4.99-8.4-6.75-31.28-15.55-55.68,15.1-72.16,37.49-.02,.02,.02,.05,.04,.03,9.22-9.96,18.17-19.29,30.48-25.42,9.79-4.87,23.67-6.89,34.15-2.46-3.48,1.47-6.8,3.55-9.89,6.41-7.01,6.48-10.53,18.03-4.26,26.26,5,6.55,14.56,8.14,22.06,5.54,8.86-3.08,13.38-12.4,13.6-21.33,.16-6.53-1.03-12.6-4.08-17.58,14.05,.23,27.37,5.98,39.89,11.86,11.2,5.26,21.75,11.96,34.06,14.35,10.26,2,20.13,1.38,29.71-2.96,9.55-4.32,18.2-12.43,20.87-22.87,1.19-4.67-.76-11.05-6.43-11.36h0Zm-120.61,40.89c-6.42,11.64-26.25,11.34-29.98-2.47-3.53-13.1,6.74-21.46,18.16-25.19,3.88,2.19,8.34,5.26,11.02,8.65,4.15,5.24,3.94,13.29,.79,19.01h.01Z"/>
  <path class="cls-1" d="M.34,13.55c2.67,10.44,11.32,18.55,20.87,22.87,9.58,4.34,19.45,4.96,29.71,2.96,12.3-2.4,22.86-9.1,34.06-14.35,12.52-5.88,25.85-11.63,39.89-11.86-3.05,4.98-4.24,11.05-4.08,17.58,.22,8.93,4.74,18.25,13.6,21.33,7.49,2.6,17.06,1.02,22.06-5.54,6.27-8.22,2.74-19.78-4.26-26.26-3.09-2.86-6.41-4.94-9.89-6.41,10.48-4.43,24.36-2.41,34.15,2.46,12.31,6.12,21.26,15.45,30.48,25.42,.02,.02,.05,0,.04-.03-16.48-22.39-40.87-53.04-72.16-37.49-3.54,1.76-6.29,4.06-8.4,6.75-16.91,.19-35.27,8.7-49.82,13.39-13.07,4.22-27.63,7.32-41.21,4.12-5.98-1.41-11.74-3.47-16.44-7.59-2-1.75-3.74-3.78-5.03-6.11-.52-.95-.98-1.89-1.35-2.92-.15-.42-.27-.84-.39-1.26,.42-.39,.73-.87,.83-1.45,.65-3.96-2.05-7.2-6.22-6.97C1.1,2.5-.86,8.87,.34,13.55Zm127.82,10.52c2.68-3.39,7.15-6.46,11.02-8.65,11.42,3.73,21.69,12.08,18.16,25.19-3.72,13.81-23.55,14.12-29.98,2.47-3.15-5.72-3.36-13.77,.79-19.01h0Z"/>
</svg>